<svg width="266" height="324" viewBox="0 0 266 324" fill="none" xmlns="http://www.w3.org/2000/svg">
<path d="M132.757 4C203.86 4.00023 261.513 61.7485 261.513 133C261.513 204.252 203.86 262 132.757 262C61.6535 262 4 204.252 4 133C4 61.7483 61.6535 4 132.757 4Z" stroke="#1E2939" stroke-width="8"/>
<mask id="path-2-outside-1_11464_128822" maskUnits="userSpaceOnUse" x="44.918" y="297" width="177" height="26" fill="black">
<rect fill="white" x="44.918" y="297" width="177" height="26"/>
<path d="M60.9833 299.545V317H58.1708L49.9464 305.111H49.8015V317H46.6396V299.545H49.4691L57.685 311.443H57.8384V299.545H60.9833ZM70.0025 317.256C68.7241 317.256 67.6161 316.974 66.6786 316.412C65.7411 315.849 65.0138 315.062 64.4968 314.051C63.9854 313.04 63.7298 311.858 63.7298 310.506C63.7298 309.153 63.9854 307.969 64.4968 306.952C65.0138 305.935 65.7411 305.145 66.6786 304.582C67.6161 304.02 68.7241 303.739 70.0025 303.739C71.2809 303.739 72.3888 304.02 73.3263 304.582C74.2638 305.145 74.9883 305.935 75.4996 306.952C76.0167 307.969 76.2752 309.153 76.2752 310.506C76.2752 311.858 76.0167 313.04 75.4996 314.051C74.9883 315.062 74.2638 315.849 73.3263 316.412C72.3888 316.974 71.2809 317.256 70.0025 317.256ZM70.0195 314.784C70.7127 314.784 71.2923 314.594 71.7582 314.213C72.2241 313.827 72.5707 313.31 72.7979 312.662C73.0309 312.014 73.1474 311.293 73.1474 310.497C73.1474 309.696 73.0309 308.972 72.7979 308.324C72.5707 307.67 72.2241 307.151 71.7582 306.764C71.2923 306.378 70.7127 306.185 70.0195 306.185C69.3093 306.185 68.7184 306.378 68.2468 306.764C67.7809 307.151 67.4315 307.67 67.1985 308.324C66.9712 308.972 66.8576 309.696 66.8576 310.497C66.8576 311.293 66.9712 312.014 67.1985 312.662C67.4315 313.31 67.7809 313.827 68.2468 314.213C68.7184 314.594 69.3093 314.784 70.0195 314.784ZM84.8469 321.909V303.909H87.881V306.074H88.06C88.2191 305.756 88.4435 305.418 88.7333 305.06C89.0231 304.696 89.4151 304.386 89.9094 304.131C90.4038 303.869 91.0344 303.739 91.8015 303.739C92.8129 303.739 93.7248 303.997 94.5373 304.514C95.3555 305.026 96.0032 305.784 96.4805 306.79C96.9634 307.79 97.2049 309.017 97.2049 310.472C97.2049 311.909 96.9691 313.131 96.4975 314.136C96.0259 315.142 95.3839 315.909 94.5714 316.438C93.7589 316.966 92.8384 317.23 91.81 317.23C91.06 317.23 90.4379 317.105 89.9435 316.855C89.4492 316.605 89.0515 316.304 88.7504 315.952C88.4549 315.594 88.2248 315.256 88.06 314.938H87.9322V321.909H84.8469ZM87.8725 310.455C87.8725 311.301 87.9918 312.043 88.2305 312.679C88.4748 313.315 88.8242 313.812 89.2788 314.17C89.739 314.523 90.2958 314.699 90.9492 314.699C91.631 314.699 92.2021 314.517 92.6623 314.153C93.1225 313.784 93.4691 313.281 93.7021 312.645C93.9407 312.003 94.06 311.273 94.06 310.455C94.06 309.642 93.9435 308.92 93.7106 308.29C93.4776 307.659 93.131 307.165 92.6708 306.807C92.2106 306.449 91.6367 306.27 90.9492 306.27C90.2901 306.27 89.7305 306.443 89.2702 306.79C88.81 307.136 88.4606 307.622 88.2219 308.247C87.989 308.872 87.8725 309.608 87.8725 310.455ZM99.8469 317V303.909H102.838V306.091H102.975C103.213 305.335 103.623 304.753 104.202 304.344C104.787 303.929 105.455 303.722 106.205 303.722C106.375 303.722 106.566 303.73 106.776 303.747C106.992 303.759 107.171 303.778 107.313 303.807V306.645C107.182 306.599 106.975 306.56 106.691 306.526C106.412 306.486 106.142 306.466 105.881 306.466C105.319 306.466 104.813 306.588 104.364 306.832C103.921 307.071 103.571 307.403 103.316 307.83C103.06 308.256 102.932 308.747 102.932 309.304V317H99.8469ZM114.534 317.256C113.255 317.256 112.147 316.974 111.21 316.412C110.272 315.849 109.545 315.062 109.028 314.051C108.517 313.04 108.261 311.858 108.261 310.506C108.261 309.153 108.517 307.969 109.028 306.952C109.545 305.935 110.272 305.145 111.21 304.582C112.147 304.02 113.255 303.739 114.534 303.739C115.812 303.739 116.92 304.02 117.858 304.582C118.795 305.145 119.52 305.935 120.031 306.952C120.548 307.969 120.806 309.153 120.806 310.506C120.806 311.858 120.548 313.04 120.031 314.051C119.52 315.062 118.795 315.849 117.858 316.412C116.92 316.974 115.812 317.256 114.534 317.256ZM114.551 314.784C115.244 314.784 115.824 314.594 116.289 314.213C116.755 313.827 117.102 313.31 117.329 312.662C117.562 312.014 117.679 311.293 117.679 310.497C117.679 309.696 117.562 308.972 117.329 308.324C117.102 307.67 116.755 307.151 116.289 306.764C115.824 306.378 115.244 306.185 114.551 306.185C113.841 306.185 113.25 306.378 112.778 306.764C112.312 307.151 111.963 307.67 111.73 308.324C111.502 308.972 111.389 309.696 111.389 310.497C111.389 311.293 111.502 312.014 111.73 312.662C111.963 313.31 112.312 313.827 112.778 314.213C113.25 314.594 113.841 314.784 114.551 314.784ZM123.425 303.909H126.51V317.75C126.51 318.693 126.331 319.472 125.973 320.085C125.615 320.699 125.098 321.156 124.422 321.457C123.746 321.759 122.925 321.909 121.959 321.909C121.846 321.909 121.74 321.906 121.644 321.901C121.547 321.901 121.442 321.898 121.328 321.892V319.378C121.414 319.384 121.49 319.386 121.559 319.386C121.627 319.392 121.698 319.395 121.772 319.395C122.363 319.395 122.786 319.25 123.042 318.96C123.297 318.676 123.425 318.259 123.425 317.707V303.909ZM124.959 302.051C124.465 302.051 124.042 301.889 123.689 301.565C123.343 301.236 123.169 300.841 123.169 300.381C123.169 299.915 123.343 299.52 123.689 299.196C124.042 298.866 124.465 298.702 124.959 298.702C125.448 298.702 125.865 298.866 126.212 299.196C126.564 299.52 126.74 299.915 126.74 300.381C126.74 300.841 126.564 301.236 126.212 301.565C125.865 301.889 125.448 302.051 124.959 302.051ZM135.478 317.256C134.166 317.256 133.032 316.983 132.078 316.438C131.129 315.886 130.399 315.108 129.887 314.102C129.376 313.091 129.12 311.901 129.12 310.531C129.12 309.185 129.376 308.003 129.887 306.986C130.404 305.963 131.126 305.168 132.052 304.599C132.978 304.026 134.066 303.739 135.316 303.739C136.123 303.739 136.885 303.869 137.6 304.131C138.322 304.386 138.958 304.784 139.51 305.324C140.066 305.864 140.504 306.551 140.822 307.386C141.14 308.216 141.299 309.205 141.299 310.352V311.298H130.569V309.219H138.342C138.336 308.628 138.208 308.102 137.958 307.642C137.708 307.176 137.359 306.81 136.91 306.543C136.467 306.276 135.95 306.142 135.359 306.142C134.728 306.142 134.174 306.295 133.697 306.602C133.22 306.903 132.848 307.301 132.581 307.795C132.319 308.284 132.186 308.821 132.18 309.406V311.222C132.18 311.983 132.319 312.636 132.598 313.182C132.876 313.722 133.265 314.136 133.765 314.426C134.265 314.71 134.85 314.852 135.521 314.852C135.97 314.852 136.376 314.79 136.74 314.665C137.103 314.534 137.419 314.344 137.686 314.094C137.953 313.844 138.154 313.534 138.291 313.165L141.172 313.489C140.99 314.25 140.643 314.915 140.132 315.483C139.626 316.045 138.978 316.483 138.189 316.795C137.399 317.102 136.495 317.256 135.478 317.256ZM149.62 317.256C148.313 317.256 147.191 316.969 146.253 316.395C145.321 315.821 144.603 315.028 144.097 314.017C143.597 313 143.347 311.83 143.347 310.506C143.347 309.176 143.603 308.003 144.114 306.986C144.625 305.963 145.347 305.168 146.279 304.599C147.216 304.026 148.324 303.739 149.603 303.739C150.665 303.739 151.605 303.935 152.424 304.327C153.248 304.713 153.904 305.261 154.392 305.972C154.881 306.676 155.159 307.5 155.228 308.443H152.279C152.159 307.812 151.875 307.287 151.426 306.866C150.983 306.44 150.39 306.227 149.645 306.227C149.015 306.227 148.461 306.398 147.983 306.739C147.506 307.074 147.134 307.557 146.867 308.188C146.605 308.818 146.475 309.574 146.475 310.455C146.475 311.347 146.605 312.114 146.867 312.756C147.128 313.392 147.495 313.884 147.966 314.23C148.444 314.571 149.003 314.741 149.645 314.741C150.1 314.741 150.506 314.656 150.864 314.486C151.228 314.31 151.532 314.057 151.776 313.727C152.02 313.398 152.188 312.997 152.279 312.526H155.228C155.154 313.452 154.881 314.273 154.409 314.989C153.938 315.699 153.296 316.256 152.483 316.659C151.671 317.057 150.716 317.256 149.62 317.256ZM164.298 303.909V306.295H156.772V303.909H164.298ZM158.63 300.773H161.716V313.062C161.716 313.477 161.778 313.795 161.903 314.017C162.034 314.233 162.204 314.381 162.414 314.46C162.625 314.54 162.858 314.58 163.113 314.58C163.306 314.58 163.483 314.565 163.642 314.537C163.806 314.509 163.931 314.483 164.017 314.46L164.537 316.872C164.372 316.929 164.136 316.991 163.829 317.06C163.528 317.128 163.159 317.168 162.721 317.179C161.949 317.202 161.252 317.085 160.633 316.83C160.014 316.568 159.522 316.165 159.159 315.619C158.801 315.074 158.625 314.392 158.63 313.574V300.773ZM177.037 307.369L174.225 307.676C174.145 307.392 174.006 307.125 173.807 306.875C173.614 306.625 173.353 306.423 173.023 306.27C172.694 306.116 172.29 306.04 171.813 306.04C171.171 306.04 170.631 306.179 170.194 306.457C169.762 306.736 169.549 307.097 169.554 307.54C169.549 307.92 169.688 308.23 169.972 308.469C170.262 308.707 170.739 308.903 171.404 309.057L173.637 309.534C174.875 309.801 175.796 310.224 176.398 310.804C177.006 311.384 177.313 312.142 177.319 313.08C177.313 313.903 177.071 314.631 176.594 315.261C176.123 315.886 175.466 316.375 174.625 316.727C173.784 317.08 172.819 317.256 171.728 317.256C170.125 317.256 168.836 316.92 167.858 316.25C166.881 315.574 166.299 314.634 166.111 313.429L169.12 313.139C169.256 313.73 169.546 314.176 169.989 314.477C170.432 314.778 171.009 314.929 171.719 314.929C172.452 314.929 173.04 314.778 173.483 314.477C173.932 314.176 174.157 313.804 174.157 313.361C174.157 312.986 174.012 312.676 173.722 312.432C173.438 312.187 172.995 312 172.392 311.869L170.159 311.401C168.904 311.139 167.975 310.699 167.373 310.08C166.77 309.455 166.472 308.665 166.478 307.71C166.472 306.903 166.691 306.205 167.134 305.614C167.583 305.017 168.205 304.557 169 304.233C169.801 303.903 170.725 303.739 171.77 303.739C173.304 303.739 174.512 304.065 175.392 304.719C176.279 305.372 176.827 306.256 177.037 307.369ZM187.733 321.909C187.313 321.909 186.924 321.875 186.566 321.807C186.213 321.744 185.932 321.67 185.722 321.585L186.438 319.182C186.887 319.313 187.287 319.375 187.64 319.369C187.992 319.364 188.301 319.253 188.569 319.037C188.841 318.827 189.071 318.474 189.259 317.98L189.523 317.273L184.776 303.909H188.049L191.066 313.795H191.202L194.228 303.909H197.509L192.267 318.585C192.023 319.278 191.699 319.872 191.296 320.366C190.892 320.866 190.398 321.247 189.813 321.509C189.233 321.776 188.54 321.909 187.733 321.909ZM204.994 317.256C203.681 317.256 202.548 316.983 201.593 316.438C200.645 315.886 199.914 315.108 199.403 314.102C198.892 313.091 198.636 311.901 198.636 310.531C198.636 309.185 198.892 308.003 199.403 306.986C199.92 305.963 200.642 305.168 201.568 304.599C202.494 304.026 203.582 303.739 204.832 303.739C205.639 303.739 206.4 303.869 207.116 304.131C207.838 304.386 208.474 304.784 209.025 305.324C209.582 305.864 210.02 306.551 210.338 307.386C210.656 308.216 210.815 309.205 210.815 310.352V311.298H200.085V309.219H207.858C207.852 308.628 207.724 308.102 207.474 307.642C207.224 307.176 206.875 306.81 206.426 306.543C205.983 306.276 205.466 306.142 204.875 306.142C204.244 306.142 203.69 306.295 203.213 306.602C202.735 306.903 202.363 307.301 202.096 307.795C201.835 308.284 201.701 308.821 201.696 309.406V311.222C201.696 311.983 201.835 312.636 202.113 313.182C202.392 313.722 202.781 314.136 203.281 314.426C203.781 314.71 204.366 314.852 205.037 314.852C205.485 314.852 205.892 314.79 206.255 314.665C206.619 314.534 206.934 314.344 207.201 314.094C207.468 313.844 207.67 313.534 207.806 313.165L210.687 313.489C210.505 314.25 210.159 314.915 209.647 315.483C209.142 316.045 208.494 316.483 207.704 316.795C206.914 317.102 206.011 317.256 204.994 317.256ZM219.962 303.909V306.295H212.436V303.909H219.962ZM214.294 300.773H217.38V313.062C217.38 313.477 217.442 313.795 217.567 314.017C217.698 314.233 217.868 314.381 218.078 314.46C218.289 314.54 218.522 314.58 218.777 314.58C218.971 314.58 219.147 314.565 219.306 314.537C219.471 314.509 219.596 314.483 219.681 314.46L220.201 316.872C220.036 316.929 219.8 316.991 219.493 317.06C219.192 317.128 218.823 317.168 218.385 317.179C217.613 317.202 216.917 317.085 216.297 316.83C215.678 316.568 215.186 316.165 214.823 315.619C214.465 315.074 214.289 314.392 214.294 313.574V300.773Z"/>
</mask>
<path d="M60.9833 299.545V317H58.1708L49.9464 305.111H49.8015V317H46.6396V299.545H49.4691L57.685 311.443H57.8384V299.545H60.9833ZM70.0025 317.256C68.7241 317.256 67.6161 316.974 66.6786 316.412C65.7411 315.849 65.0138 315.062 64.4968 314.051C63.9854 313.04 63.7298 311.858 63.7298 310.506C63.7298 309.153 63.9854 307.969 64.4968 306.952C65.0138 305.935 65.7411 305.145 66.6786 304.582C67.6161 304.02 68.7241 303.739 70.0025 303.739C71.2809 303.739 72.3888 304.02 73.3263 304.582C74.2638 305.145 74.9883 305.935 75.4996 306.952C76.0167 307.969 76.2752 309.153 76.2752 310.506C76.2752 311.858 76.0167 313.04 75.4996 314.051C74.9883 315.062 74.2638 315.849 73.3263 316.412C72.3888 316.974 71.2809 317.256 70.0025 317.256ZM70.0195 314.784C70.7127 314.784 71.2923 314.594 71.7582 314.213C72.2241 313.827 72.5707 313.31 72.7979 312.662C73.0309 312.014 73.1474 311.293 73.1474 310.497C73.1474 309.696 73.0309 308.972 72.7979 308.324C72.5707 307.67 72.2241 307.151 71.7582 306.764C71.2923 306.378 70.7127 306.185 70.0195 306.185C69.3093 306.185 68.7184 306.378 68.2468 306.764C67.7809 307.151 67.4315 307.67 67.1985 308.324C66.9712 308.972 66.8576 309.696 66.8576 310.497C66.8576 311.293 66.9712 312.014 67.1985 312.662C67.4315 313.31 67.7809 313.827 68.2468 314.213C68.7184 314.594 69.3093 314.784 70.0195 314.784ZM84.8469 321.909V303.909H87.881V306.074H88.06C88.2191 305.756 88.4435 305.418 88.7333 305.06C89.0231 304.696 89.4151 304.386 89.9094 304.131C90.4038 303.869 91.0344 303.739 91.8015 303.739C92.8129 303.739 93.7248 303.997 94.5373 304.514C95.3555 305.026 96.0032 305.784 96.4805 306.79C96.9634 307.79 97.2049 309.017 97.2049 310.472C97.2049 311.909 96.9691 313.131 96.4975 314.136C96.0259 315.142 95.3839 315.909 94.5714 316.438C93.7589 316.966 92.8384 317.23 91.81 317.23C91.06 317.23 90.4379 317.105 89.9435 316.855C89.4492 316.605 89.0515 316.304 88.7504 315.952C88.4549 315.594 88.2248 315.256 88.06 314.938H87.9322V321.909H84.8469ZM87.8725 310.455C87.8725 311.301 87.9918 312.043 88.2305 312.679C88.4748 313.315 88.8242 313.812 89.2788 314.17C89.739 314.523 90.2958 314.699 90.9492 314.699C91.631 314.699 92.2021 314.517 92.6623 314.153C93.1225 313.784 93.4691 313.281 93.7021 312.645C93.9407 312.003 94.06 311.273 94.06 310.455C94.06 309.642 93.9435 308.92 93.7106 308.29C93.4776 307.659 93.131 307.165 92.6708 306.807C92.2106 306.449 91.6367 306.27 90.9492 306.27C90.2901 306.27 89.7305 306.443 89.2702 306.79C88.81 307.136 88.4606 307.622 88.2219 308.247C87.989 308.872 87.8725 309.608 87.8725 310.455ZM99.8469 317V303.909H102.838V306.091H102.975C103.213 305.335 103.623 304.753 104.202 304.344C104.787 303.929 105.455 303.722 106.205 303.722C106.375 303.722 106.566 303.73 106.776 303.747C106.992 303.759 107.171 303.778 107.313 303.807V306.645C107.182 306.599 106.975 306.56 106.691 306.526C106.412 306.486 106.142 306.466 105.881 306.466C105.319 306.466 104.813 306.588 104.364 306.832C103.921 307.071 103.571 307.403 103.316 307.83C103.06 308.256 102.932 308.747 102.932 309.304V317H99.8469ZM114.534 317.256C113.255 317.256 112.147 316.974 111.21 316.412C110.272 315.849 109.545 315.062 109.028 314.051C108.517 313.04 108.261 311.858 108.261 310.506C108.261 309.153 108.517 307.969 109.028 306.952C109.545 305.935 110.272 305.145 111.21 304.582C112.147 304.02 113.255 303.739 114.534 303.739C115.812 303.739 116.92 304.02 117.858 304.582C118.795 305.145 119.52 305.935 120.031 306.952C120.548 307.969 120.806 309.153 120.806 310.506C120.806 311.858 120.548 313.04 120.031 314.051C119.52 315.062 118.795 315.849 117.858 316.412C116.92 316.974 115.812 317.256 114.534 317.256ZM114.551 314.784C115.244 314.784 115.824 314.594 116.289 314.213C116.755 313.827 117.102 313.31 117.329 312.662C117.562 312.014 117.679 311.293 117.679 310.497C117.679 309.696 117.562 308.972 117.329 308.324C117.102 307.67 116.755 307.151 116.289 306.764C115.824 306.378 115.244 306.185 114.551 306.185C113.841 306.185 113.25 306.378 112.778 306.764C112.312 307.151 111.963 307.67 111.73 308.324C111.502 308.972 111.389 309.696 111.389 310.497C111.389 311.293 111.502 312.014 111.73 312.662C111.963 313.31 112.312 313.827 112.778 314.213C113.25 314.594 113.841 314.784 114.551 314.784ZM123.425 303.909H126.51V317.75C126.51 318.693 126.331 319.472 125.973 320.085C125.615 320.699 125.098 321.156 124.422 321.457C123.746 321.759 122.925 321.909 121.959 321.909C121.846 321.909 121.74 321.906 121.644 321.901C121.547 321.901 121.442 321.898 121.328 321.892V319.378C121.414 319.384 121.49 319.386 121.559 319.386C121.627 319.392 121.698 319.395 121.772 319.395C122.363 319.395 122.786 319.25 123.042 318.96C123.297 318.676 123.425 318.259 123.425 317.707V303.909ZM124.959 302.051C124.465 302.051 124.042 301.889 123.689 301.565C123.343 301.236 123.169 300.841 123.169 300.381C123.169 299.915 123.343 299.52 123.689 299.196C124.042 298.866 124.465 298.702 124.959 298.702C125.448 298.702 125.865 298.866 126.212 299.196C126.564 299.52 126.74 299.915 126.74 300.381C126.74 300.841 126.564 301.236 126.212 301.565C125.865 301.889 125.448 302.051 124.959 302.051ZM135.478 317.256C134.166 317.256 133.032 316.983 132.078 316.438C131.129 315.886 130.399 315.108 129.887 314.102C129.376 313.091 129.12 311.901 129.12 310.531C129.12 309.185 129.376 308.003 129.887 306.986C130.404 305.963 131.126 305.168 132.052 304.599C132.978 304.026 134.066 303.739 135.316 303.739C136.123 303.739 136.885 303.869 137.6 304.131C138.322 304.386 138.958 304.784 139.51 305.324C140.066 305.864 140.504 306.551 140.822 307.386C141.14 308.216 141.299 309.205 141.299 310.352V311.298H130.569V309.219H138.342C138.336 308.628 138.208 308.102 137.958 307.642C137.708 307.176 137.359 306.81 136.91 306.543C136.467 306.276 135.95 306.142 135.359 306.142C134.728 306.142 134.174 306.295 133.697 306.602C133.22 306.903 132.848 307.301 132.581 307.795C132.319 308.284 132.186 308.821 132.18 309.406V311.222C132.18 311.983 132.319 312.636 132.598 313.182C132.876 313.722 133.265 314.136 133.765 314.426C134.265 314.71 134.85 314.852 135.521 314.852C135.97 314.852 136.376 314.79 136.74 314.665C137.103 314.534 137.419 314.344 137.686 314.094C137.953 313.844 138.154 313.534 138.291 313.165L141.172 313.489C140.99 314.25 140.643 314.915 140.132 315.483C139.626 316.045 138.978 316.483 138.189 316.795C137.399 317.102 136.495 317.256 135.478 317.256ZM149.62 317.256C148.313 317.256 147.191 316.969 146.253 316.395C145.321 315.821 144.603 315.028 144.097 314.017C143.597 313 143.347 311.83 143.347 310.506C143.347 309.176 143.603 308.003 144.114 306.986C144.625 305.963 145.347 305.168 146.279 304.599C147.216 304.026 148.324 303.739 149.603 303.739C150.665 303.739 151.605 303.935 152.424 304.327C153.248 304.713 153.904 305.261 154.392 305.972C154.881 306.676 155.159 307.5 155.228 308.443H152.279C152.159 307.812 151.875 307.287 151.426 306.866C150.983 306.44 150.39 306.227 149.645 306.227C149.015 306.227 148.461 306.398 147.983 306.739C147.506 307.074 147.134 307.557 146.867 308.188C146.605 308.818 146.475 309.574 146.475 310.455C146.475 311.347 146.605 312.114 146.867 312.756C147.128 313.392 147.495 313.884 147.966 314.23C148.444 314.571 149.003 314.741 149.645 314.741C150.1 314.741 150.506 314.656 150.864 314.486C151.228 314.31 151.532 314.057 151.776 313.727C152.02 313.398 152.188 312.997 152.279 312.526H155.228C155.154 313.452 154.881 314.273 154.409 314.989C153.938 315.699 153.296 316.256 152.483 316.659C151.671 317.057 150.716 317.256 149.62 317.256ZM164.298 303.909V306.295H156.772V303.909H164.298ZM158.63 300.773H161.716V313.062C161.716 313.477 161.778 313.795 161.903 314.017C162.034 314.233 162.204 314.381 162.414 314.46C162.625 314.54 162.858 314.58 163.113 314.58C163.306 314.58 163.483 314.565 163.642 314.537C163.806 314.509 163.931 314.483 164.017 314.46L164.537 316.872C164.372 316.929 164.136 316.991 163.829 317.06C163.528 317.128 163.159 317.168 162.721 317.179C161.949 317.202 161.252 317.085 160.633 316.83C160.014 316.568 159.522 316.165 159.159 315.619C158.801 315.074 158.625 314.392 158.63 313.574V300.773ZM177.037 307.369L174.225 307.676C174.145 307.392 174.006 307.125 173.807 306.875C173.614 306.625 173.353 306.423 173.023 306.27C172.694 306.116 172.29 306.04 171.813 306.04C171.171 306.04 170.631 306.179 170.194 306.457C169.762 306.736 169.549 307.097 169.554 307.54C169.549 307.92 169.688 308.23 169.972 308.469C170.262 308.707 170.739 308.903 171.404 309.057L173.637 309.534C174.875 309.801 175.796 310.224 176.398 310.804C177.006 311.384 177.313 312.142 177.319 313.08C177.313 313.903 177.071 314.631 176.594 315.261C176.123 315.886 175.466 316.375 174.625 316.727C173.784 317.08 172.819 317.256 171.728 317.256C170.125 317.256 168.836 316.92 167.858 316.25C166.881 315.574 166.299 314.634 166.111 313.429L169.12 313.139C169.256 313.73 169.546 314.176 169.989 314.477C170.432 314.778 171.009 314.929 171.719 314.929C172.452 314.929 173.04 314.778 173.483 314.477C173.932 314.176 174.157 313.804 174.157 313.361C174.157 312.986 174.012 312.676 173.722 312.432C173.438 312.187 172.995 312 172.392 311.869L170.159 311.401C168.904 311.139 167.975 310.699 167.373 310.08C166.77 309.455 166.472 308.665 166.478 307.71C166.472 306.903 166.691 306.205 167.134 305.614C167.583 305.017 168.205 304.557 169 304.233C169.801 303.903 170.725 303.739 171.77 303.739C173.304 303.739 174.512 304.065 175.392 304.719C176.279 305.372 176.827 306.256 177.037 307.369ZM187.733 321.909C187.313 321.909 186.924 321.875 186.566 321.807C186.213 321.744 185.932 321.67 185.722 321.585L186.438 319.182C186.887 319.313 187.287 319.375 187.64 319.369C187.992 319.364 188.301 319.253 188.569 319.037C188.841 318.827 189.071 318.474 189.259 317.98L189.523 317.273L184.776 303.909H188.049L191.066 313.795H191.202L194.228 303.909H197.509L192.267 318.585C192.023 319.278 191.699 319.872 191.296 320.366C190.892 320.866 190.398 321.247 189.813 321.509C189.233 321.776 188.54 321.909 187.733 321.909ZM204.994 317.256C203.681 317.256 202.548 316.983 201.593 316.438C200.645 315.886 199.914 315.108 199.403 314.102C198.892 313.091 198.636 311.901 198.636 310.531C198.636 309.185 198.892 308.003 199.403 306.986C199.92 305.963 200.642 305.168 201.568 304.599C202.494 304.026 203.582 303.739 204.832 303.739C205.639 303.739 206.4 303.869 207.116 304.131C207.838 304.386 208.474 304.784 209.025 305.324C209.582 305.864 210.02 306.551 210.338 307.386C210.656 308.216 210.815 309.205 210.815 310.352V311.298H200.085V309.219H207.858C207.852 308.628 207.724 308.102 207.474 307.642C207.224 307.176 206.875 306.81 206.426 306.543C205.983 306.276 205.466 306.142 204.875 306.142C204.244 306.142 203.69 306.295 203.213 306.602C202.735 306.903 202.363 307.301 202.096 307.795C201.835 308.284 201.701 308.821 201.696 309.406V311.222C201.696 311.983 201.835 312.636 202.113 313.182C202.392 313.722 202.781 314.136 203.281 314.426C203.781 314.71 204.366 314.852 205.037 314.852C205.485 314.852 205.892 314.79 206.255 314.665C206.619 314.534 206.934 314.344 207.201 314.094C207.468 313.844 207.67 313.534 207.806 313.165L210.687 313.489C210.505 314.25 210.159 314.915 209.647 315.483C209.142 316.045 208.494 316.483 207.704 316.795C206.914 317.102 206.011 317.256 204.994 317.256ZM219.962 303.909V306.295H212.436V303.909H219.962ZM214.294 300.773H217.38V313.062C217.38 313.477 217.442 313.795 217.567 314.017C217.698 314.233 217.868 314.381 218.078 314.46C218.289 314.54 218.522 314.58 218.777 314.58C218.971 314.58 219.147 314.565 219.306 314.537C219.471 314.509 219.596 314.483 219.681 314.46L220.201 316.872C220.036 316.929 219.8 316.991 219.493 317.06C219.192 317.128 218.823 317.168 218.385 317.179C217.613 317.202 216.917 317.085 216.297 316.83C215.678 316.568 215.186 316.165 214.823 315.619C214.465 315.074 214.289 314.392 214.294 313.574V300.773Z" fill="#99A1AF"/>
<path d="M60.9833 299.545H61.9833V298.545H60.9833V299.545ZM60.9833 317V318H61.9833V317H60.9833ZM58.1708 317L57.3484 317.569L57.6466 318H58.1708V317ZM49.9464 305.111L50.7688 304.542L50.4706 304.111H49.9464V305.111ZM49.8015 305.111V304.111H48.8015V305.111H49.8015ZM49.8015 317V318H50.8015V317H49.8015ZM46.6396 317H45.6396V318H46.6396V317ZM46.6396 299.545V298.545H45.6396V299.545H46.6396ZM49.4691 299.545L50.292 298.977L49.9938 298.545H49.4691V299.545ZM57.685 311.443L56.8621 312.011L57.1603 312.443H57.685V311.443ZM57.8384 311.443V312.443H58.8384V311.443H57.8384ZM57.8384 299.545V298.545H56.8384V299.545H57.8384ZM60.9833 299.545H59.9833V317H60.9833H61.9833V299.545H60.9833ZM60.9833 317V316H58.1708V317V318H60.9833V317ZM58.1708 317L58.9932 316.431L50.7688 304.542L49.9464 305.111L49.124 305.68L57.3484 317.569L58.1708 317ZM49.9464 305.111V304.111H49.8015V305.111V306.111H49.9464V305.111ZM49.8015 305.111H48.8015V317H49.8015H50.8015V305.111H49.8015ZM49.8015 317V316H46.6396V317V318H49.8015V317ZM46.6396 317H47.6396V299.545H46.6396H45.6396V317H46.6396ZM46.6396 299.545V300.545H49.4691V299.545V298.545H46.6396V299.545ZM49.4691 299.545L48.6462 300.114L56.8621 312.011L57.685 311.443L58.5079 310.875L50.292 298.977L49.4691 299.545ZM57.685 311.443V312.443H57.8384V311.443V310.443H57.685V311.443ZM57.8384 311.443H58.8384V299.545H57.8384H56.8384V311.443H57.8384ZM57.8384 299.545V300.545H60.9833V299.545V298.545H57.8384V299.545ZM66.6786 316.412L66.1641 317.269V317.269L66.6786 316.412ZM64.4968 314.051L63.6044 314.502L63.6064 314.506L64.4968 314.051ZM64.4968 306.952L63.6054 306.499L63.6034 306.502L64.4968 306.952ZM66.6786 304.582L67.1931 305.44V305.44L66.6786 304.582ZM73.3263 304.582L72.8119 305.44H72.8119L73.3263 304.582ZM75.4996 306.952L74.6062 307.401L74.6082 307.405L75.4996 306.952ZM75.4996 314.051L74.6092 313.596L74.6072 313.6L75.4996 314.051ZM73.3263 316.412L72.8119 315.554H72.8119L73.3263 316.412ZM71.7582 314.213L72.3909 314.987L72.3965 314.983L71.7582 314.213ZM72.7979 312.662L71.8569 312.323L71.8543 312.331L72.7979 312.662ZM72.7979 308.324L71.8534 308.652L71.8569 308.662L72.7979 308.324ZM71.7582 306.764L72.3965 305.994V305.994L71.7582 306.764ZM68.2468 306.764L67.613 305.991L67.6085 305.994L68.2468 306.764ZM67.1985 308.324L66.2566 307.988L66.2549 307.993L67.1985 308.324ZM67.1985 312.662L66.2549 312.993L66.2575 313L67.1985 312.662ZM68.2468 314.213L67.6084 314.983L67.6187 314.991L68.2468 314.213ZM70.0025 317.256V316.256C68.8743 316.256 67.9506 316.009 67.1931 315.554L66.6786 316.412L66.1641 317.269C67.2817 317.94 68.5739 318.256 70.0025 318.256V317.256ZM66.6786 316.412L67.1931 315.554C66.4225 315.092 65.8225 314.447 65.3872 313.596L64.4968 314.051L63.6064 314.506C64.2052 315.678 65.0597 316.607 66.1641 317.269L66.6786 316.412ZM64.4968 314.051L65.3892 313.6C64.961 312.753 64.7298 311.731 64.7298 310.506H63.7298H62.7298C62.7298 311.985 63.0099 313.327 63.6044 314.502L64.4968 314.051ZM63.7298 310.506H64.7298C64.7298 309.28 64.9609 308.255 65.3902 307.401L64.4968 306.952L63.6034 306.502C63.0099 307.683 62.7298 309.027 62.7298 310.506H63.7298ZM64.4968 306.952L65.3882 307.405C65.824 306.548 66.424 305.901 67.1931 305.44L66.6786 304.582L66.1641 303.725C65.0583 304.388 64.2037 305.322 63.6054 306.499L64.4968 306.952ZM66.6786 304.582L67.1931 305.44C67.9506 304.985 68.8743 304.739 70.0025 304.739V303.739V302.739C68.5739 302.739 67.2817 303.054 66.1641 303.725L66.6786 304.582ZM70.0025 303.739V304.739C71.1307 304.739 72.0544 304.985 72.8119 305.44L73.3263 304.582L73.8408 303.725C72.7233 303.054 71.4311 302.739 70.0025 302.739V303.739ZM73.3263 304.582L72.8119 305.44C73.58 305.901 74.1763 306.546 74.6062 307.401L75.4996 306.952L76.3931 306.502C75.8003 305.324 74.9477 304.389 73.8408 303.725L73.3263 304.582ZM75.4996 306.952L74.6082 307.405C75.0418 308.258 75.2752 309.282 75.2752 310.506H76.2752H77.2752C77.2752 309.025 76.9916 307.68 76.3911 306.499L75.4996 306.952ZM76.2752 310.506H75.2752C75.2752 311.73 75.0418 312.75 74.6093 313.596L75.4996 314.051L76.39 314.506C76.9916 313.33 77.2752 311.986 77.2752 310.506H76.2752ZM75.4996 314.051L74.6072 313.6C74.1777 314.449 73.5815 315.093 72.8119 315.554L73.3263 316.412L73.8408 317.269C74.9462 316.606 75.7988 315.676 76.3921 314.502L75.4996 314.051ZM73.3263 316.412L72.8119 315.554C72.0544 316.009 71.1307 316.256 70.0025 316.256V317.256V318.256C71.4311 318.256 72.7233 317.94 73.8408 317.269L73.3263 316.412ZM70.0195 314.784V315.784C70.9064 315.784 71.7198 315.536 72.3909 314.987L71.7582 314.213L71.1254 313.439C70.8648 313.652 70.519 313.784 70.0195 313.784V314.784ZM71.7582 314.213L72.3965 314.983C73.0201 314.466 73.4624 313.788 73.7415 312.993L72.7979 312.662L71.8543 312.331C71.6789 312.831 71.4281 313.188 71.1198 313.443L71.7582 314.213ZM72.7979 312.662L73.7389 313C74.0165 312.229 74.1474 311.39 74.1474 310.497H73.1474H72.1474C72.1474 311.195 72.0453 311.8 71.8569 312.324L72.7979 312.662ZM73.1474 310.497H74.1474C74.1474 309.599 74.0168 308.758 73.7389 307.985L72.7979 308.324L71.8569 308.662C72.045 309.185 72.1474 309.793 72.1474 310.497H73.1474ZM72.7979 308.324L73.7424 307.995C73.464 307.195 73.0219 306.513 72.3965 305.994L71.7582 306.764L71.1198 307.534C71.4262 307.788 71.6773 308.146 71.8534 308.652L72.7979 308.324ZM71.7582 306.764L72.3965 305.994C71.7254 305.438 70.91 305.185 70.0195 305.185V306.185V307.185C70.5154 307.185 70.8591 307.318 71.1198 307.534L71.7582 306.764ZM70.0195 306.185V305.185C69.1182 305.185 68.2921 305.434 67.6131 305.991L68.2468 306.764L68.8806 307.538C69.1447 307.321 69.5004 307.185 70.0195 307.185V306.185ZM68.2468 306.764L67.6085 305.994C66.985 306.511 66.5409 307.191 66.2566 307.988L67.1985 308.324L68.1404 308.66C68.322 308.15 68.5768 307.79 68.8851 307.534L68.2468 306.764ZM67.1985 308.324L66.2549 307.993C65.9846 308.763 65.8576 309.602 65.8576 310.497H66.8576H67.8576C67.8576 309.79 67.9578 309.18 68.1421 308.655L67.1985 308.324ZM66.8576 310.497H65.8576C65.8576 311.388 65.9849 312.223 66.2549 312.993L67.1985 312.662L68.1421 312.331C67.9576 311.805 67.8576 311.197 67.8576 310.497H66.8576ZM67.1985 312.662L66.2575 313C66.5425 313.793 66.9869 314.467 67.6085 314.983L68.2468 314.213L68.8851 313.443C68.5749 313.186 68.3204 312.827 68.1395 312.324L67.1985 312.662ZM68.2468 314.213L67.6187 314.991C68.2977 315.539 69.1218 315.784 70.0195 315.784V314.784V313.784C69.4968 313.784 69.1391 313.648 68.8749 313.435L68.2468 314.213ZM84.8469 321.909H83.8469V322.909H84.8469V321.909ZM84.8469 303.909V302.909H83.8469V303.909H84.8469ZM87.881 303.909H88.881V302.909H87.881V303.909ZM87.881 306.074H86.881V307.074H87.881V306.074ZM88.06 306.074V307.074H88.678L88.9544 306.521L88.06 306.074ZM88.7333 305.06L89.5106 305.689L89.5154 305.683L88.7333 305.06ZM89.9094 304.131L90.3689 305.019L90.3769 305.015L89.9094 304.131ZM94.5373 304.514L94.0004 305.358L94.0073 305.362L94.5373 304.514ZM96.4805 306.79L95.577 307.219L95.58 307.225L96.4805 306.79ZM96.4975 314.136L95.5921 313.712V313.712L96.4975 314.136ZM94.5714 316.438L95.1166 317.276L94.5714 316.438ZM89.9435 316.855L89.4922 317.747V317.747L89.9435 316.855ZM88.7504 315.952L87.9791 316.588L87.9846 316.595L87.9902 316.601L88.7504 315.952ZM88.06 314.938L88.948 314.478L88.6683 313.938H88.06V314.938ZM87.9322 314.938V313.938H86.9322V314.938H87.9322ZM87.9322 321.909V322.909H88.9322V321.909H87.9322ZM88.2305 312.679L87.2941 313.03L87.2969 313.037L88.2305 312.679ZM89.2788 314.17L88.66 314.956L88.671 314.965L89.2788 314.17ZM92.6623 314.153L93.2823 314.938L93.2882 314.933L92.6623 314.153ZM93.7021 312.645L92.7647 312.296L92.763 312.301L93.7021 312.645ZM93.7106 308.29L94.6486 307.943V307.943L93.7106 308.29ZM92.6708 306.807L93.2848 306.017V306.017L92.6708 306.807ZM89.2702 306.79L89.8718 307.589V307.589L89.2702 306.79ZM88.2219 308.247L87.2877 307.89L87.2849 307.898L88.2219 308.247ZM84.8469 321.909H85.8469V303.909H84.8469H83.8469V321.909H84.8469ZM84.8469 303.909V304.909H87.881V303.909V302.909H84.8469V303.909ZM87.881 303.909H86.881V306.074H87.881H88.881V303.909H87.881ZM87.881 306.074V307.074H88.06V306.074V305.074H87.881V306.074ZM88.06 306.074L88.9544 306.521C89.0733 306.283 89.2538 306.006 89.5106 305.689L88.7333 305.06L87.9561 304.43C87.6333 304.829 87.3649 305.228 87.1656 305.627L88.06 306.074ZM88.7333 305.06L89.5154 305.683C89.7019 305.449 89.9753 305.222 90.3689 305.019L89.9094 304.131L89.45 303.242C88.8549 303.55 88.3442 303.943 87.9512 304.436L88.7333 305.06ZM89.9094 304.131L90.3769 305.015C90.6837 304.853 91.1398 304.739 91.8015 304.739V303.739V302.739C90.9291 302.739 90.1239 302.886 89.442 303.247L89.9094 304.131ZM91.8015 303.739V304.739C92.6327 304.739 93.3566 304.948 94.0004 305.358L94.5373 304.514L95.0742 303.671C94.093 303.046 92.993 302.739 91.8015 302.739V303.739ZM94.5373 304.514L94.0073 305.362C94.6398 305.758 95.1688 306.358 95.577 307.219L96.4805 306.79L97.3839 306.361C96.8376 305.21 96.0711 304.294 95.0673 303.666L94.5373 304.514ZM96.4805 306.79L95.58 307.225C95.9804 308.054 96.2049 309.123 96.2049 310.472H97.2049H98.2049C98.2049 308.911 97.9464 307.526 97.381 306.355L96.4805 306.79ZM97.2049 310.472H96.2049C96.2049 311.804 95.9859 312.872 95.5921 313.712L96.4975 314.136L97.4029 314.561C97.9523 313.389 98.2049 312.014 98.2049 310.472H97.2049ZM96.4975 314.136L95.5921 313.712C95.1879 314.574 94.6606 315.187 94.0262 315.599L94.5714 316.438L95.1166 317.276C96.1072 316.632 96.864 315.71 97.4029 314.561L96.4975 314.136ZM94.5714 316.438L94.0262 315.599C93.386 316.016 92.6573 316.23 91.81 316.23V317.23V318.23C93.0196 318.23 94.1317 317.916 95.1166 317.276L94.5714 316.438ZM91.81 317.23V316.23C91.164 316.23 90.7087 316.121 90.3948 315.963L89.9435 316.855L89.4922 317.747C90.167 318.089 90.956 318.23 91.81 318.23V317.23ZM89.9435 316.855L90.3948 315.963C89.9959 315.761 89.7107 315.536 89.5105 315.302L88.7504 315.952L87.9902 316.601C88.3923 317.072 88.9025 317.449 89.4922 317.747L89.9435 316.855ZM88.7504 315.952L89.5216 315.315C89.2587 314.997 89.0723 314.718 88.948 314.478L88.06 314.938L87.172 315.397C87.3773 315.794 87.6511 316.191 87.9791 316.588L88.7504 315.952ZM88.06 314.938V313.938H87.9322V314.938V315.938H88.06V314.938ZM87.9322 314.938H86.9322V321.909H87.9322H88.9322V314.938H87.9322ZM87.9322 321.909V320.909H84.8469V321.909V322.909H87.9322V321.909ZM87.8725 310.455H86.8725C86.8725 311.393 87.0045 312.258 87.2941 313.03L88.2305 312.679L89.1668 312.328C88.9792 311.828 88.8725 311.21 88.8725 310.455H87.8725ZM88.2305 312.679L87.2969 313.037C87.5942 313.812 88.0406 314.468 88.6601 314.956L89.2788 314.17L89.8975 313.385C89.6079 313.157 89.3554 312.819 89.164 312.321L88.2305 312.679ZM89.2788 314.17L88.671 314.965C89.3277 315.467 90.1055 315.699 90.9492 315.699V314.699V313.699C90.4861 313.699 90.1503 313.578 89.8866 313.376L89.2788 314.17ZM90.9492 314.699V315.699C91.8178 315.699 92.6177 315.463 93.2822 314.938L92.6623 314.153L92.0423 313.369C91.7864 313.571 91.4442 313.699 90.9492 313.699V314.699ZM92.6623 314.153L93.2882 314.933C93.9107 314.434 94.355 313.77 94.6411 312.989L93.7021 312.645L92.763 312.301C92.5833 312.792 92.3344 313.134 92.0364 313.373L92.6623 314.153ZM93.7021 312.645L94.6394 312.993C94.9267 312.22 95.06 311.369 95.06 310.455H94.06H93.06C93.06 311.176 92.9547 311.785 92.7647 312.296L93.7021 312.645ZM94.06 310.455H95.06C95.06 309.548 94.9301 308.705 94.6486 307.943L93.7106 308.29L92.7725 308.636C92.957 309.136 93.06 309.736 93.06 310.455H94.06ZM93.7106 308.29L94.6486 307.943C94.3612 307.165 93.9136 306.507 93.2848 306.017L92.6708 306.807L92.0569 307.596C92.3485 307.823 92.5941 308.153 92.7725 308.636L93.7106 308.29ZM92.6708 306.807L93.2848 306.017C92.6189 305.5 91.8177 305.27 90.9492 305.27V306.27V307.27C91.4557 307.27 91.8023 307.398 92.0569 307.596L92.6708 306.807ZM90.9492 306.27V305.27C90.1057 305.27 89.3266 305.495 88.6687 305.991L89.2702 306.79L89.8718 307.589C90.1343 307.391 90.4745 307.27 90.9492 307.27V306.27ZM89.2702 306.79L88.6687 305.991C88.0353 306.468 87.5824 307.119 87.2877 307.89L88.2219 308.247L89.1562 308.604C89.3387 308.126 89.5848 307.805 89.8718 307.589L89.2702 306.79ZM88.2219 308.247L87.2849 307.898C87.0008 308.66 86.8725 309.519 86.8725 310.455H87.8725H88.8725C88.8725 309.696 88.9772 309.084 89.159 308.596L88.2219 308.247ZM99.8469 317H98.8469V318H99.8469V317ZM99.8469 303.909V302.909H98.8469V303.909H99.8469ZM102.838 303.909H103.838V302.909H102.838V303.909ZM102.838 306.091H101.838V307.091H102.838V306.091ZM102.975 306.091V307.091H103.708L103.928 306.392L102.975 306.091ZM104.202 304.344L104.779 305.161L104.78 305.16L104.202 304.344ZM106.776 303.747L106.695 304.744L106.709 304.745L106.723 304.746L106.776 303.747ZM107.313 303.807H108.313V302.987L107.509 302.826L107.313 303.807ZM107.313 306.645L106.984 307.589L108.313 308.051V306.645H107.313ZM106.691 306.526L106.549 307.516L106.56 307.517L106.572 307.518L106.691 306.526ZM104.364 306.832L104.838 307.713L104.842 307.711L104.364 306.832ZM102.932 317V318H103.932V317H102.932ZM99.8469 317H100.847V303.909H99.8469H98.8469V317H99.8469ZM99.8469 303.909V304.909H102.838V303.909V302.909H99.8469V303.909ZM102.838 303.909H101.838V306.091H102.838H103.838V303.909H102.838ZM102.838 306.091V307.091H102.975V306.091V305.091H102.838V306.091ZM102.975 306.091L103.928 306.392C104.109 305.819 104.399 305.429 104.779 305.161L104.202 304.344L103.625 303.527C102.846 304.077 102.318 304.851 102.021 305.79L102.975 306.091ZM104.202 304.344L104.78 305.16C105.188 304.87 105.652 304.722 106.205 304.722V303.722V302.722C105.258 302.722 104.386 302.988 103.624 303.528L104.202 304.344ZM106.205 303.722V304.722C106.343 304.722 106.506 304.729 106.695 304.744L106.776 303.747L106.857 302.75C106.626 302.732 106.408 302.722 106.205 302.722V303.722ZM106.776 303.747L106.723 304.746C106.912 304.756 107.039 304.772 107.117 304.787L107.313 303.807L107.509 302.826C107.303 302.785 107.072 302.761 106.828 302.749L106.776 303.747ZM107.313 303.807H106.313V306.645H107.313H108.313V303.807H107.313ZM107.313 306.645L107.641 305.7C107.404 305.618 107.106 305.568 106.81 305.533L106.691 306.526L106.572 307.518C106.698 307.534 106.797 307.549 106.871 307.563C106.908 307.57 106.936 307.576 106.956 307.582C106.977 307.587 106.985 307.59 106.984 307.589L107.313 306.645ZM106.691 306.526L106.832 305.536C106.51 305.49 106.193 305.466 105.881 305.466V306.466V307.466C106.092 307.466 106.314 307.482 106.549 307.516L106.691 306.526ZM105.881 306.466V305.466C105.169 305.466 104.496 305.622 103.886 305.954L104.364 306.832L104.842 307.711C105.13 307.554 105.468 307.466 105.881 307.466V306.466ZM104.364 306.832L103.89 305.952C103.29 306.275 102.808 306.733 102.458 307.315L103.316 307.83L104.173 308.344C104.335 308.074 104.551 307.867 104.838 307.713L104.364 306.832ZM103.316 307.83L102.458 307.315C102.098 307.915 101.932 308.588 101.932 309.304H102.932H103.932C103.932 308.906 104.022 308.597 104.173 308.344L103.316 307.83ZM102.932 309.304H101.932V317H102.932H103.932V309.304H102.932ZM102.932 317V316H99.8469V317V318H102.932V317ZM111.21 316.412L110.695 317.269V317.269L111.21 316.412ZM109.028 314.051L108.136 314.502L108.138 314.506L109.028 314.051ZM109.028 306.952L108.137 306.499L108.135 306.502L109.028 306.952ZM111.21 304.582L111.724 305.44V305.44L111.21 304.582ZM117.858 304.582L117.343 305.44V305.44L117.858 304.582ZM120.031 306.952L119.137 307.401L119.139 307.405L120.031 306.952ZM120.031 314.051L119.14 313.596L119.138 313.6L120.031 314.051ZM117.858 316.412L117.343 315.554V315.554L117.858 316.412ZM116.289 314.213L116.922 314.987L116.928 314.983L116.289 314.213ZM117.329 312.662L116.388 312.323L116.386 312.331L117.329 312.662ZM117.329 308.324L116.385 308.652L116.388 308.662L117.329 308.324ZM116.289 306.764L116.928 305.994L116.928 305.994L116.289 306.764ZM112.778 306.764L112.144 305.991L112.14 305.994L112.778 306.764ZM111.73 308.324L110.788 307.988L110.786 307.993L111.73 308.324ZM111.73 312.662L110.786 312.993L110.789 313L111.73 312.662ZM112.778 314.213L112.14 314.983L112.15 314.991L112.778 314.213ZM114.534 317.256V316.256C113.406 316.256 112.482 316.009 111.724 315.554L111.21 316.412L110.695 317.269C111.813 317.94 113.105 318.256 114.534 318.256V317.256ZM111.21 316.412L111.724 315.554C110.954 315.092 110.354 314.447 109.918 313.596L109.028 314.051L108.138 314.506C108.736 315.678 109.591 316.607 110.695 317.269L111.21 316.412ZM109.028 314.051L109.92 313.6C109.492 312.753 109.261 311.731 109.261 310.506H108.261H107.261C107.261 311.985 107.541 313.327 108.136 314.502L109.028 314.051ZM108.261 310.506H109.261C109.261 309.28 109.492 308.255 109.921 307.401L109.028 306.952L108.135 306.502C107.541 307.683 107.261 309.027 107.261 310.506H108.261ZM109.028 306.952L109.919 307.405C110.355 306.548 110.955 305.901 111.724 305.44L111.21 304.582L110.695 303.725C109.59 304.388 108.735 305.322 108.137 306.499L109.028 306.952ZM111.21 304.582L111.724 305.44C112.482 304.985 113.406 304.739 114.534 304.739V303.739V302.739C113.105 302.739 111.813 303.054 110.695 303.725L111.21 304.582ZM114.534 303.739V304.739C115.662 304.739 116.586 304.985 117.343 305.44L117.858 304.582L118.372 303.725C117.255 303.054 115.962 302.739 114.534 302.739V303.739ZM117.858 304.582L117.343 305.44C118.111 305.901 118.708 306.546 119.137 307.401L120.031 306.952L120.924 306.502C120.332 305.324 119.479 304.389 118.372 303.725L117.858 304.582ZM120.031 306.952L119.139 307.405C119.573 308.258 119.806 309.282 119.806 310.506H120.806H121.806C121.806 309.025 121.523 307.68 120.922 306.499L120.031 306.952ZM120.806 310.506H119.806C119.806 311.73 119.573 312.75 119.141 313.596L120.031 314.051L120.921 314.506C121.523 313.33 121.806 311.986 121.806 310.506H120.806ZM120.031 314.051L119.138 313.6C118.709 314.449 118.113 315.093 117.343 315.554L117.858 316.412L118.372 317.269C119.477 316.606 120.33 315.676 120.923 314.502L120.031 314.051ZM117.858 316.412L117.343 315.554C116.586 316.009 115.662 316.256 114.534 316.256V317.256V318.256C115.962 318.256 117.255 317.94 118.372 317.269L117.858 316.412ZM114.551 314.784V315.784C115.438 315.784 116.251 315.536 116.922 314.987L116.289 314.213L115.657 313.439C115.396 313.652 115.05 313.784 114.551 313.784V314.784ZM116.289 314.213L116.928 314.983C117.551 314.466 117.994 313.788 118.273 312.993L117.329 312.662L116.386 312.331C116.21 312.831 115.959 313.188 115.651 313.443L116.289 314.213ZM117.329 312.662L118.27 313C118.548 312.229 118.679 311.39 118.679 310.497H117.679H116.679C116.679 311.195 116.577 311.8 116.388 312.324L117.329 312.662ZM117.679 310.497H118.679C118.679 309.599 118.548 308.758 118.27 307.985L117.329 308.324L116.388 308.662C116.576 309.185 116.679 309.793 116.679 310.497H117.679ZM117.329 308.324L118.274 307.995C117.995 307.195 117.553 306.513 116.928 305.994L116.289 306.764L115.651 307.534C115.957 307.788 116.209 308.146 116.385 308.652L117.329 308.324ZM116.289 306.764L116.928 305.994C116.257 305.438 115.441 305.185 114.551 305.185V306.185V307.185C115.047 307.185 115.39 307.318 115.651 307.534L116.289 306.764ZM114.551 306.185V305.185C113.649 305.185 112.823 305.434 112.144 305.991L112.778 306.764L113.412 307.538C113.676 307.321 114.032 307.185 114.551 307.185V306.185ZM112.778 306.764L112.14 305.994C111.516 306.511 111.072 307.191 110.788 307.988L111.73 308.324L112.672 308.66C112.853 308.15 113.108 307.79 113.416 307.534L112.778 306.764ZM111.73 308.324L110.786 307.993C110.516 308.763 110.389 309.602 110.389 310.497H111.389H112.389C112.389 309.79 112.489 309.18 112.673 308.655L111.73 308.324ZM111.389 310.497H110.389C110.389 311.388 110.516 312.223 110.786 312.993L111.73 312.662L112.673 312.331C112.489 311.805 112.389 311.197 112.389 310.497H111.389ZM111.73 312.662L110.789 313C111.074 313.793 111.518 314.467 112.14 314.983L112.778 314.213L113.416 313.443C113.106 313.186 112.852 312.827 112.671 312.324L111.73 312.662ZM112.778 314.213L112.15 314.991C112.829 315.539 113.653 315.784 114.551 315.784V314.784V313.784C114.028 313.784 113.67 313.648 113.406 313.435L112.778 314.213ZM123.425 303.909V302.909H122.425V303.909H123.425ZM126.51 303.909H127.51V302.909H126.51V303.909ZM125.973 320.085L126.837 320.589V320.589L125.973 320.085ZM124.422 321.457L124.015 320.544V320.544L124.422 321.457ZM121.644 321.901L121.703 320.902L121.673 320.901H121.644V321.901ZM121.328 321.892H120.328V322.843L121.279 322.891L121.328 321.892ZM121.328 319.378L121.395 318.38L120.328 318.309V319.378H121.328ZM121.559 319.386L121.642 318.39L121.6 318.386H121.559V319.386ZM123.042 318.96L122.298 318.291L122.292 318.299L123.042 318.96ZM123.689 301.565L123 302.29L123.006 302.296L123.012 302.302L123.689 301.565ZM123.689 299.196L124.372 299.927L124.372 299.926L123.689 299.196ZM126.212 299.196L125.523 299.921L125.529 299.927L125.535 299.932L126.212 299.196ZM126.212 301.565L126.895 302.296L126.895 302.296L126.212 301.565ZM123.425 303.909V304.909H126.51V303.909V302.909H123.425V303.909ZM126.51 303.909H125.51V317.75H126.51H127.51V303.909H126.51ZM126.51 317.75H125.51C125.51 318.572 125.354 319.163 125.11 319.581L125.973 320.085L126.837 320.589C127.309 319.78 127.51 318.814 127.51 317.75H126.51ZM125.973 320.085L125.11 319.581C124.862 320.006 124.509 320.324 124.015 320.544L124.422 321.457L124.829 322.371C125.688 321.988 126.369 321.392 126.837 320.589L125.973 320.085ZM124.422 321.457L124.015 320.544C123.5 320.773 122.826 320.909 121.959 320.909V321.909V322.909C123.024 322.909 123.992 322.744 124.829 322.371L124.422 321.457ZM121.959 321.909V320.909C121.862 320.909 121.777 320.907 121.703 320.902L121.644 321.901L121.585 322.899C121.704 322.906 121.829 322.909 121.959 322.909V321.909ZM121.644 321.901V320.901C121.566 320.901 121.478 320.898 121.378 320.893L121.328 321.892L121.279 322.891C121.406 322.897 121.528 322.901 121.644 322.901V321.901ZM121.328 321.892H122.328V319.378H121.328H120.328V321.892H121.328ZM121.328 319.378L121.262 320.376C121.364 320.382 121.464 320.386 121.559 320.386V319.386V318.386C121.517 318.386 121.463 318.385 121.395 318.38L121.328 319.378ZM121.559 319.386L121.476 320.383C121.573 320.391 121.672 320.395 121.772 320.395V319.395V318.395C121.723 318.395 121.68 318.393 121.642 318.39L121.559 319.386ZM121.772 319.395V320.395C122.498 320.395 123.264 320.219 123.791 319.622L123.042 318.96L122.292 318.299C122.291 318.299 122.291 318.3 122.289 318.301C122.288 318.302 122.285 318.305 122.279 318.308C122.269 318.315 122.247 318.327 122.208 318.34C122.128 318.368 121.99 318.395 121.772 318.395V319.395ZM123.042 318.96L123.785 319.629C124.266 319.095 124.425 318.398 124.425 317.707H123.425H122.425C122.425 318.119 122.328 318.258 122.298 318.291L123.042 318.96ZM123.425 317.707H124.425V303.909H123.425H122.425V317.707H123.425ZM124.959 302.051V301.051C124.706 301.051 124.527 300.977 124.366 300.829L123.689 301.565L123.012 302.302C123.556 302.801 124.223 303.051 124.959 303.051V302.051ZM123.689 301.565L124.378 300.841C124.222 300.692 124.169 300.555 124.169 300.381H123.169H122.169C122.169 301.127 122.464 301.78 123 302.29L123.689 301.565ZM123.169 300.381H124.169C124.169 300.197 124.224 300.065 124.372 299.927L123.689 299.196L123.007 298.465C122.462 298.974 122.169 299.632 122.169 300.381H123.169ZM123.689 299.196L124.372 299.926C124.534 299.775 124.712 299.702 124.959 299.702V298.702V297.702C124.218 297.702 123.549 297.958 123.006 298.466L123.689 299.196ZM124.959 298.702V299.702C125.198 299.702 125.367 299.772 125.523 299.921L126.212 299.196L126.901 298.471C126.364 297.961 125.698 297.702 124.959 297.702V298.702ZM126.212 299.196L125.535 299.932C125.688 300.073 125.74 300.203 125.74 300.381H126.74H127.74C127.74 299.626 127.441 298.967 126.889 298.46L126.212 299.196ZM126.74 300.381H125.74C125.74 300.549 125.69 300.684 125.529 300.835L126.212 301.565L126.895 302.296C127.439 301.787 127.74 301.132 127.74 300.381H126.74ZM126.212 301.565L125.529 300.835C125.374 300.98 125.203 301.051 124.959 301.051V302.051V303.051C125.693 303.051 126.357 302.799 126.895 302.296L126.212 301.565ZM132.078 316.438L131.576 317.302L131.582 317.306L132.078 316.438ZM129.887 314.102L128.995 314.553L128.996 314.556L129.887 314.102ZM129.887 306.986L128.995 306.535L128.994 306.537L129.887 306.986ZM132.052 304.599L132.575 305.452L132.579 305.449L132.052 304.599ZM137.6 304.131L137.258 305.07L137.267 305.073L137.6 304.131ZM139.51 305.324L138.81 306.038L138.814 306.042L139.51 305.324ZM140.822 307.386L139.888 307.742L139.888 307.744L140.822 307.386ZM141.299 311.298V312.298H142.299V311.298H141.299ZM130.569 311.298H129.569V312.298H130.569V311.298ZM130.569 309.219V308.219H129.569V309.219H130.569ZM138.342 309.219V310.219H139.352L139.342 309.209L138.342 309.219ZM137.958 307.642L137.077 308.115L137.08 308.119L137.958 307.642ZM136.91 306.543L136.394 307.399L136.399 307.402L136.91 306.543ZM133.697 306.602L134.231 307.448L134.238 307.443L133.697 306.602ZM132.581 307.795L131.701 307.32L131.699 307.324L132.581 307.795ZM132.18 309.406L131.18 309.397V309.406H132.18ZM132.598 313.182L131.707 313.636L131.709 313.64L132.598 313.182ZM133.765 314.426L133.264 315.291L133.271 315.296L133.765 314.426ZM136.74 314.665L137.065 315.611L137.078 315.606L136.74 314.665ZM138.291 313.165L138.403 312.171L137.624 312.084L137.353 312.818L138.291 313.165ZM141.172 313.489L142.144 313.721L142.407 312.621L141.283 312.495L141.172 313.489ZM140.132 315.483L139.388 314.814L139.388 314.814L140.132 315.483ZM138.189 316.795L138.551 317.728L138.556 317.725L138.189 316.795ZM135.478 317.256V316.256C134.306 316.256 133.351 316.013 132.574 315.569L132.078 316.438L131.582 317.306C132.714 317.953 134.026 318.256 135.478 318.256V317.256ZM132.078 316.438L132.58 315.573C131.803 315.121 131.205 314.488 130.779 313.649L129.887 314.102L128.996 314.556C129.592 315.728 130.455 316.651 131.576 317.302L132.078 316.438ZM129.887 314.102L130.78 313.651C130.352 312.806 130.12 311.776 130.12 310.531H129.12H128.12C128.12 312.025 128.4 313.376 128.995 314.553L129.887 314.102ZM129.12 310.531H130.12C130.12 309.312 130.351 308.289 130.781 307.435L129.887 306.986L128.994 306.537C128.401 307.716 128.12 309.057 128.12 310.531H129.12ZM129.887 306.986L130.78 307.437C131.218 306.57 131.816 305.918 132.575 305.452L132.052 304.599L131.529 303.747C130.436 304.418 129.591 305.356 128.995 306.535L129.887 306.986ZM132.052 304.599L132.579 305.449C133.325 304.987 134.225 304.739 135.316 304.739V303.739V302.739C133.908 302.739 132.632 303.064 131.525 303.749L132.052 304.599ZM135.316 303.739V304.739C136.013 304.739 136.658 304.851 137.258 305.07L137.6 304.131L137.943 303.191C137.111 302.888 136.233 302.739 135.316 302.739V303.739ZM137.6 304.131L137.267 305.073C137.85 305.28 138.362 305.599 138.81 306.038L139.51 305.324L140.209 304.609C139.555 303.969 138.794 303.493 137.934 303.188L137.6 304.131ZM139.51 305.324L138.814 306.042C139.25 306.465 139.614 307.023 139.888 307.742L140.822 307.386L141.757 307.03C141.394 306.079 140.882 305.262 140.206 304.606L139.51 305.324ZM140.822 307.386L139.888 307.744C140.152 308.432 140.299 309.293 140.299 310.352H141.299H142.299C142.299 309.116 142.129 308 141.756 307.028L140.822 307.386ZM141.299 310.352H140.299V311.298H141.299H142.299V310.352H141.299ZM141.299 311.298V310.298H130.569V311.298V312.298H141.299V311.298ZM130.569 311.298H131.569V309.219H130.569H129.569V311.298H130.569ZM130.569 309.219V310.219H138.342V309.219V308.219H130.569V309.219ZM138.342 309.219L139.342 309.209C139.335 308.476 139.175 307.786 138.837 307.165L137.958 307.642L137.08 308.119C137.242 308.418 137.338 308.78 137.342 309.228L138.342 309.219ZM137.958 307.642L138.84 307.169C138.505 306.545 138.028 306.044 137.421 305.683L136.91 306.543L136.399 307.402C136.69 307.575 136.912 307.807 137.077 308.115L137.958 307.642ZM136.91 306.543L137.426 305.686C136.806 305.312 136.105 305.142 135.359 305.142V306.142V307.142C135.794 307.142 136.128 307.239 136.394 307.399L136.91 306.543ZM135.359 306.142V305.142C134.559 305.142 133.813 305.339 133.156 305.761L133.697 306.602L134.238 307.443C134.536 307.252 134.898 307.142 135.359 307.142V306.142ZM133.697 306.602L133.163 305.757C132.542 306.149 132.05 306.674 131.701 307.32L132.581 307.795L133.46 308.271C133.645 307.928 133.898 307.658 134.231 307.448L133.697 306.602ZM132.581 307.795L131.699 307.324C131.357 307.963 131.187 308.659 131.18 309.397L132.18 309.406L133.18 309.416C133.184 308.983 133.281 308.606 133.462 308.267L132.581 307.795ZM132.18 309.406H131.18V311.222H132.18H133.18V309.406H132.18ZM132.18 311.222H131.18C131.18 312.103 131.341 312.92 131.707 313.636L132.598 313.182L133.488 312.727C133.297 312.353 133.18 311.863 133.18 311.222H132.18ZM132.598 313.182L131.709 313.64C132.07 314.341 132.59 314.901 133.264 315.291L133.765 314.426L134.267 313.561C133.941 313.372 133.682 313.102 133.486 312.723L132.598 313.182ZM133.765 314.426L133.271 315.296C133.945 315.679 134.706 315.852 135.521 315.852V314.852V313.852C134.995 313.852 134.585 313.742 134.259 313.557L133.765 314.426ZM135.521 314.852V315.852C136.062 315.852 136.581 315.777 137.065 315.61L136.74 314.665L136.415 313.719C136.171 313.803 135.877 313.852 135.521 313.852V314.852ZM136.74 314.665L137.078 315.606C137.562 315.432 137.997 315.172 138.369 314.824L137.686 314.094L137.002 313.364C136.84 313.515 136.644 313.636 136.402 313.724L136.74 314.665ZM137.686 314.094L138.369 314.824C138.758 314.459 139.043 314.015 139.229 313.511L138.291 313.165L137.353 312.818C137.266 313.053 137.147 313.228 137.002 313.364L137.686 314.094ZM138.291 313.165L138.179 314.159L141.06 314.482L141.172 313.489L141.283 312.495L138.403 312.171L138.291 313.165ZM141.172 313.489L140.199 313.256C140.055 313.859 139.785 314.373 139.388 314.814L140.132 315.483L140.875 316.152C141.501 315.457 141.925 314.641 142.144 313.721L141.172 313.489ZM140.132 315.483L139.388 314.814C138.998 315.248 138.484 315.603 137.821 315.866L138.189 316.795L138.556 317.725C139.472 317.363 140.254 316.842 140.875 316.152L140.132 315.483ZM138.189 316.795L137.826 315.863C137.173 316.117 136.396 316.256 135.478 316.256V317.256V318.256C136.595 318.256 137.625 318.087 138.551 317.728L138.189 316.795ZM146.253 316.395L145.729 317.246L145.731 317.248L146.253 316.395ZM144.097 314.017L143.2 314.458L143.203 314.464L144.097 314.017ZM144.114 306.986L145.007 307.435L145.008 307.433L144.114 306.986ZM146.279 304.599L146.799 305.453L146.801 305.452L146.279 304.599ZM152.424 304.327L151.992 305.229L151.999 305.232L152.424 304.327ZM154.392 305.972L153.569 306.538L153.571 306.541L154.392 305.972ZM155.228 308.443V309.443H156.303L156.225 308.371L155.228 308.443ZM152.279 308.443L151.296 308.629L151.45 309.443H152.279V308.443ZM151.426 306.866L150.733 307.587L150.743 307.596L151.426 306.866ZM147.983 306.739L148.558 307.557L148.565 307.552L147.983 306.739ZM146.867 308.188L145.946 307.798L145.943 307.805L146.867 308.188ZM146.867 312.756L145.941 313.133L145.942 313.136L146.867 312.756ZM147.966 314.23L147.374 315.036L147.385 315.044L147.966 314.23ZM150.864 314.486L151.294 315.389L151.3 315.386L150.864 314.486ZM151.776 313.727L150.973 313.132V313.132L151.776 313.727ZM152.279 312.526V311.526H151.453L151.297 312.336L152.279 312.526ZM155.228 312.526L156.224 312.605L156.311 311.526H155.228V312.526ZM154.409 314.989L155.243 315.542L155.245 315.539L154.409 314.989ZM152.483 316.659L152.923 317.557L152.928 317.555L152.483 316.659ZM149.62 317.256V316.256C148.462 316.256 147.528 316.003 146.775 315.542L146.253 316.395L145.731 317.248C146.853 317.935 148.164 318.256 149.62 318.256V317.256ZM146.253 316.395L146.778 315.543C146.01 315.071 145.417 314.42 144.991 313.57L144.097 314.017L143.203 314.464C143.789 315.636 144.633 316.571 145.729 317.246L146.253 316.395ZM144.097 314.017L144.994 313.576C144.572 312.717 144.347 311.702 144.347 310.506H143.347H142.347C142.347 311.957 142.622 313.283 143.2 314.458L144.097 314.017ZM143.347 310.506H144.347C144.347 309.306 144.577 308.291 145.007 307.435L144.114 306.986L143.221 306.537C142.628 307.715 142.347 309.046 142.347 310.506H143.347ZM144.114 306.986L145.008 307.433C145.44 306.57 146.036 305.919 146.799 305.453L146.279 304.599L145.758 303.746C144.658 304.416 143.811 305.356 143.22 306.539L144.114 306.986ZM146.279 304.599L146.801 305.452C147.557 304.989 148.478 304.739 149.603 304.739V303.739V302.739C148.17 302.739 146.875 303.062 145.757 303.747L146.279 304.599ZM149.603 303.739V304.739C150.541 304.739 151.329 304.911 151.992 305.229L152.424 304.327L152.856 303.425C151.882 302.958 150.789 302.739 149.603 302.739V303.739ZM152.424 304.327L151.999 305.232C152.671 305.547 153.186 305.983 153.569 306.538L154.392 305.972L155.216 305.405C154.621 304.54 153.824 303.879 152.848 303.421L152.424 304.327ZM154.392 305.972L153.571 306.541C153.947 307.084 154.174 307.732 154.23 308.515L155.228 308.443L156.225 308.371C156.145 307.268 155.815 306.268 155.214 305.402L154.392 305.972ZM155.228 308.443V307.443H152.279V308.443V309.443H155.228V308.443ZM152.279 308.443L153.261 308.257C153.104 307.428 152.721 306.709 152.11 306.137L151.426 306.866L150.743 307.596C151.03 307.865 151.214 308.197 151.296 308.629L152.279 308.443ZM151.426 306.866L152.12 306.146C151.452 305.504 150.59 305.227 149.645 305.227V306.227V307.227C150.189 307.227 150.514 307.377 150.733 307.587L151.426 306.866ZM149.645 306.227V305.227C148.823 305.227 148.062 305.454 147.402 305.925L147.983 306.739L148.565 307.552C148.859 307.342 149.206 307.227 149.645 307.227V306.227ZM147.983 306.739L147.409 305.92C146.753 306.381 146.273 307.025 145.946 307.798L146.867 308.188L147.788 308.577C147.995 308.089 148.259 307.767 148.558 307.557L147.983 306.739ZM146.867 308.188L145.943 307.805C145.619 308.586 145.475 309.479 145.475 310.455H146.475H147.475C147.475 309.669 147.592 309.05 147.791 308.57L146.867 308.188ZM146.475 310.455H145.475C145.475 311.44 145.619 312.342 145.941 313.133L146.867 312.756L147.793 312.379C147.592 311.885 147.475 311.253 147.475 310.455H146.475ZM146.867 312.756L145.942 313.136C146.261 313.912 146.73 314.563 147.374 315.036L147.966 314.23L148.558 313.424C148.259 313.204 147.996 312.872 147.792 312.376L146.867 312.756ZM147.966 314.23L147.385 315.044C148.048 315.517 148.816 315.741 149.645 315.741V314.741V313.741C149.191 313.741 148.839 313.625 148.548 313.416L147.966 314.23ZM149.645 314.741V315.741C150.227 315.741 150.783 315.632 151.294 315.389L150.864 314.486L150.434 313.583C150.229 313.681 149.973 313.741 149.645 313.741V314.741ZM150.864 314.486L151.3 315.386C151.811 315.138 152.24 314.78 152.579 314.323L151.776 313.727L150.973 313.132C150.823 313.334 150.644 313.481 150.428 313.586L150.864 314.486ZM151.776 313.727L152.579 314.323C152.927 313.854 153.146 313.309 153.261 312.715L152.279 312.526L151.297 312.336C151.229 312.686 151.114 312.941 150.973 313.132L151.776 313.727ZM152.279 312.526V313.526H155.228V312.526V311.526H152.279V312.526ZM155.228 312.526L154.231 312.446C154.169 313.219 153.946 313.875 153.574 314.439L154.409 314.989L155.245 315.539C155.816 314.67 156.138 313.685 156.224 312.605L155.228 312.526ZM154.409 314.989L153.576 314.435C153.208 314.99 152.704 315.433 152.039 315.763L152.483 316.659L152.928 317.555C153.887 317.078 154.668 316.408 155.243 315.542L154.409 314.989ZM152.483 316.659L152.044 315.761C151.394 316.079 150.596 316.256 149.62 316.256V317.256V318.256C150.837 318.256 151.948 318.035 152.923 317.557L152.483 316.659ZM164.298 303.909H165.298V302.909H164.298V303.909ZM164.298 306.295V307.295H165.298V306.295H164.298ZM156.772 306.295H155.772V307.295H156.772V306.295ZM156.772 303.909V302.909H155.772V303.909H156.772ZM158.63 300.773V299.773H157.63V300.773H158.63ZM161.716 300.773H162.716V299.773H161.716V300.773ZM161.903 314.017L161.032 314.508L161.04 314.522L161.048 314.535L161.903 314.017ZM162.414 314.46L162.061 315.396V315.396L162.414 314.46ZM163.642 314.537L163.472 313.551L163.466 313.553L163.642 314.537ZM164.017 314.46L164.994 314.25L164.773 313.224L163.759 313.494L164.017 314.46ZM164.537 316.872L164.863 317.818L165.701 317.528L165.514 316.661L164.537 316.872ZM163.829 317.06L163.612 316.083L163.608 316.084L163.829 317.06ZM162.721 317.179L162.695 316.179L162.692 316.179L162.721 317.179ZM160.633 316.83L160.244 317.751L160.252 317.754L160.633 316.83ZM159.159 315.619L158.323 316.168L158.327 316.174L159.159 315.619ZM158.63 313.574L159.63 313.581V313.574H158.63ZM164.298 303.909H163.298V306.295H164.298H165.298V303.909H164.298ZM164.298 306.295V305.295H156.772V306.295V307.295H164.298V306.295ZM156.772 306.295H157.772V303.909H156.772H155.772V306.295H156.772ZM156.772 303.909V304.909H164.298V303.909V302.909H156.772V303.909ZM158.63 300.773V301.773H161.716V300.773V299.773H158.63V300.773ZM161.716 300.773H160.716V313.062H161.716H162.716V300.773H161.716ZM161.716 313.062H160.716C160.716 313.552 160.785 314.07 161.032 314.508L161.903 314.017L162.774 313.526C162.776 313.529 162.76 313.501 162.744 313.419C162.728 313.339 162.716 313.222 162.716 313.062H161.716ZM161.903 314.017L161.048 314.535C161.279 314.917 161.616 315.227 162.061 315.396L162.414 314.46L162.768 313.525C162.77 313.526 162.773 313.527 162.777 313.529C162.78 313.531 162.783 313.533 162.784 313.534C162.786 313.536 162.776 313.528 162.759 313.499L161.903 314.017ZM162.414 314.46L162.061 315.396C162.398 315.523 162.753 315.58 163.113 315.58V314.58V313.58C162.962 313.58 162.851 313.556 162.768 313.525L162.414 314.46ZM163.113 314.58V315.58C163.354 315.58 163.59 315.562 163.817 315.521L163.642 314.537L163.466 313.553C163.375 313.569 163.259 313.58 163.113 313.58V314.58ZM163.642 314.537L163.812 315.522C163.985 315.493 164.145 315.461 164.274 315.426L164.017 314.46L163.759 313.494C163.718 313.505 163.628 313.525 163.472 313.551L163.642 314.537ZM164.017 314.46L163.039 314.671L163.559 317.083L164.537 316.872L165.514 316.661L164.994 314.25L164.017 314.46ZM164.537 316.872L164.211 315.927C164.099 315.965 163.906 316.018 163.612 316.083L163.829 317.06L164.046 318.036C164.366 317.965 164.644 317.893 164.863 317.818L164.537 316.872ZM163.829 317.06L163.608 316.084C163.392 316.133 163.092 316.169 162.695 316.179L162.721 317.179L162.747 318.179C163.226 318.166 163.665 318.122 164.05 318.035L163.829 317.06ZM162.721 317.179L162.692 316.179C162.038 316.199 161.485 316.1 161.015 315.905L160.633 316.83L160.252 317.754C161.02 318.071 161.859 318.205 162.751 318.179L162.721 317.179ZM160.633 316.83L161.022 315.908C160.578 315.721 160.243 315.443 159.991 315.065L159.159 315.619L158.327 316.174C158.802 316.887 159.449 317.415 160.244 317.751L160.633 316.83ZM159.159 315.619L159.995 315.071C159.77 314.728 159.626 314.252 159.63 313.581L158.63 313.574L157.63 313.567C157.624 314.532 157.832 315.42 158.323 316.168L159.159 315.619ZM158.63 313.574H159.63V300.773H158.63H157.63V313.574H158.63ZM177.037 307.369L177.146 308.363L178.22 308.246L178.02 307.184L177.037 307.369ZM174.225 307.676L173.262 307.946L173.49 308.762L174.333 308.67L174.225 307.676ZM173.807 306.875L173.016 307.487L173.025 307.498L173.807 306.875ZM173.023 306.27L173.445 305.363V305.363L173.023 306.27ZM170.194 306.457L169.657 305.614L169.652 305.617L170.194 306.457ZM169.554 307.54L170.554 307.555L170.554 307.541L170.554 307.527L169.554 307.54ZM169.972 308.469L169.329 309.234L169.336 309.241L169.972 308.469ZM171.404 309.057L171.179 310.031L171.187 310.033L171.195 310.035L171.404 309.057ZM173.637 309.534L173.847 308.557L173.846 308.556L173.637 309.534ZM176.398 310.804L175.705 311.525L175.708 311.528L176.398 310.804ZM177.319 313.08L178.319 313.086L178.319 313.073L177.319 313.08ZM176.594 315.261L175.797 314.658L175.796 314.659L176.594 315.261ZM174.625 316.727L175.012 317.65L174.625 316.727ZM167.858 316.25L167.289 317.072L167.293 317.075L167.858 316.25ZM166.111 313.429L166.015 312.434L164.96 312.535L165.123 313.583L166.111 313.429ZM169.12 313.139L170.094 312.914L169.897 312.06L169.024 312.144L169.12 313.139ZM169.989 314.477L170.551 313.65V313.65L169.989 314.477ZM173.483 314.477L172.926 313.647L172.921 313.65L173.483 314.477ZM173.722 312.432L173.07 313.19L173.077 313.196L173.722 312.432ZM172.392 311.869L172.604 310.892L172.598 310.891L172.392 311.869ZM170.159 311.401L170.365 310.422L170.363 310.422L170.159 311.401ZM167.373 310.08L166.652 310.773L166.656 310.777L167.373 310.08ZM166.478 307.71L167.478 307.716L167.478 307.703L166.478 307.71ZM167.134 305.614L166.335 305.012L166.334 305.014L167.134 305.614ZM169 304.233L169.377 305.159L169.381 305.158L169 304.233ZM175.392 304.719L174.797 305.522L174.799 305.524L175.392 304.719ZM177.037 307.369L176.929 306.375L174.116 306.682L174.225 307.676L174.333 308.67L177.146 308.363L177.037 307.369ZM174.225 307.676L175.188 307.407C175.069 306.984 174.865 306.598 174.59 306.252L173.807 306.875L173.025 307.498C173.147 307.652 173.221 307.8 173.262 307.946L174.225 307.676ZM173.807 306.875L174.598 306.264C174.294 305.869 173.898 305.574 173.445 305.363L173.023 306.27L172.601 307.176C172.808 307.273 172.934 307.381 173.016 307.486L173.807 306.875ZM173.023 306.27L173.445 305.363C172.949 305.132 172.392 305.04 171.813 305.04V306.04V307.04C172.188 307.04 172.438 307.101 172.601 307.176L173.023 306.27ZM171.813 306.04V305.04C171.026 305.04 170.289 305.211 169.657 305.614L170.194 306.457L170.73 307.301C170.973 307.147 171.316 307.04 171.813 307.04V306.04ZM170.194 306.457L169.652 305.617C168.985 306.047 168.544 306.705 168.554 307.553L169.554 307.54L170.554 307.527C170.554 307.478 170.563 307.459 170.571 307.445C170.582 307.426 170.621 307.371 170.735 307.298L170.194 306.457ZM169.554 307.54L168.554 307.525C168.544 308.197 168.808 308.797 169.329 309.234L169.972 308.469L170.615 307.703C170.577 307.671 170.569 307.653 170.567 307.648C170.564 307.642 170.553 307.617 170.554 307.555L169.554 307.54ZM169.972 308.469L169.336 309.241C169.807 309.628 170.467 309.867 171.179 310.031L171.404 309.057L171.629 308.082C171.011 307.94 170.716 307.786 170.608 307.697L169.972 308.469ZM171.404 309.057L171.195 310.035L173.428 310.512L173.637 309.534L173.846 308.556L171.613 308.079L171.404 309.057ZM173.637 309.534L173.426 310.512C174.57 310.758 175.288 311.124 175.705 311.525L176.398 310.804L177.091 310.083C176.303 309.325 175.181 308.844 173.847 308.557L173.637 309.534ZM176.398 310.804L175.708 311.528C176.096 311.897 176.314 312.385 176.319 313.086L177.319 313.08L178.319 313.073C178.311 311.899 177.916 310.87 177.088 310.08L176.398 310.804ZM177.319 313.08L176.319 313.073C176.314 313.691 176.138 314.207 175.797 314.658L176.594 315.261L177.392 315.865C178.005 315.055 178.311 314.116 178.319 313.086L177.319 313.08ZM176.594 315.261L175.796 314.659C175.447 315.121 174.944 315.51 174.239 315.805L174.625 316.727L175.012 317.65C175.989 317.24 176.798 316.652 177.392 315.864L176.594 315.261ZM174.625 316.727L174.239 315.805C173.542 316.097 172.711 316.256 171.728 316.256V317.256V318.256C172.926 318.256 174.027 318.062 175.012 317.65L174.625 316.727ZM171.728 317.256V316.256C170.258 316.256 169.185 315.948 168.424 315.425L167.858 316.25L167.293 317.075C168.486 317.893 169.993 318.256 171.728 318.256V317.256ZM167.858 316.25L168.427 315.428C167.682 314.912 167.246 314.217 167.099 313.275L166.111 313.429L165.123 313.583C165.351 315.05 166.08 316.236 167.289 317.072L167.858 316.25ZM166.111 313.429L166.207 314.424L169.216 314.135L169.12 313.139L169.024 312.144L166.015 312.434L166.111 313.429ZM169.12 313.139L168.145 313.364C168.33 314.166 168.748 314.843 169.427 315.304L169.989 314.477L170.551 313.65C170.344 313.51 170.182 313.295 170.094 312.914L169.12 313.139ZM169.989 314.477L169.427 315.304C170.082 315.75 170.873 315.929 171.719 315.929V314.929V313.929C171.145 313.929 170.782 313.807 170.551 313.65L169.989 314.477ZM171.719 314.929V315.929C172.581 315.929 173.386 315.753 174.045 315.304L173.483 314.477L172.921 313.65C172.695 313.804 172.323 313.929 171.719 313.929V314.929ZM173.483 314.477L174.04 315.308C174.697 314.867 175.157 314.213 175.157 313.361H174.157H173.157C173.157 313.395 173.168 313.485 172.926 313.647L173.483 314.477ZM174.157 313.361H175.157C175.157 312.687 174.879 312.099 174.367 311.667L173.722 312.432L173.077 313.196C173.124 313.235 173.137 313.261 173.142 313.271C173.147 313.281 173.157 313.305 173.157 313.361H174.157ZM173.722 312.432L174.374 311.674C173.907 311.272 173.276 311.038 172.604 310.892L172.392 311.869L172.18 312.847C172.713 312.962 172.968 313.103 173.07 313.19L173.722 312.432ZM172.392 311.869L172.598 310.891L170.365 310.422L170.159 311.401L169.954 312.379L172.187 312.848L172.392 311.869ZM170.159 311.401L170.363 310.422C169.214 310.182 168.5 309.805 168.089 309.382L167.373 310.08L166.656 310.777C167.449 311.593 168.594 312.096 169.956 312.38L170.159 311.401ZM167.373 310.08L168.093 309.386C167.69 308.968 167.473 308.438 167.478 307.716L166.478 307.71L165.478 307.704C165.471 308.891 165.85 309.941 166.652 310.773L167.373 310.08ZM166.478 307.71L167.478 307.703C167.473 307.094 167.634 306.613 167.934 306.214L167.134 305.614L166.334 305.014C165.747 305.796 165.471 306.713 165.478 307.717L166.478 307.71ZM167.134 305.614L167.933 306.215C168.258 305.783 168.724 305.425 169.377 305.159L169 304.233L168.623 303.307C167.686 303.688 166.908 304.251 166.335 305.012L167.134 305.614ZM169 304.233L169.381 305.158C170.039 304.887 170.829 304.739 171.77 304.739V303.739V302.739C170.621 302.739 169.564 302.92 168.62 303.308L169 304.233ZM171.77 303.739V304.739C173.173 304.739 174.145 305.038 174.797 305.522L175.392 304.719L175.988 303.916C174.878 303.092 173.435 302.739 171.77 302.739V303.739ZM175.392 304.719L174.799 305.524C175.476 306.022 175.89 306.681 176.055 307.555L177.037 307.369L178.02 307.184C177.764 305.83 177.082 304.722 175.986 303.914L175.392 304.719ZM186.566 321.807L186.753 320.824L186.74 320.822L186.566 321.807ZM185.722 321.585L184.764 321.3L184.504 322.171L185.346 322.512L185.722 321.585ZM186.438 319.182L186.717 318.222L185.763 317.944L185.479 318.896L186.438 319.182ZM187.64 319.369L187.623 318.369L187.64 319.369ZM188.569 319.037L187.958 318.245L187.949 318.252L187.94 318.259L188.569 319.037ZM189.259 317.98L190.194 318.335L190.196 318.33L189.259 317.98ZM189.523 317.273L190.46 317.623L190.587 317.281L190.465 316.938L189.523 317.273ZM184.776 303.909V302.909H183.359L183.834 304.244L184.776 303.909ZM188.049 303.909L189.005 303.617L188.789 302.909H188.049V303.909ZM191.066 313.795L190.109 314.087L190.325 314.795H191.066V313.795ZM191.202 313.795V314.795H191.942L192.158 314.088L191.202 313.795ZM194.228 303.909V302.909H193.488L193.271 303.616L194.228 303.909ZM197.509 303.909L198.451 304.245L198.928 302.909H197.509V303.909ZM192.267 318.585L191.326 318.249L191.324 318.253L192.267 318.585ZM191.296 320.366L190.521 319.734L190.518 319.739L191.296 320.366ZM189.813 321.509L189.405 320.595L189.394 320.6L189.813 321.509ZM187.733 321.909V320.909C187.366 320.909 187.041 320.879 186.753 320.824L186.566 321.807L186.379 322.789C186.807 322.871 187.259 322.909 187.733 322.909V321.909ZM186.566 321.807L186.74 320.822C186.422 320.766 186.217 320.707 186.098 320.658L185.722 321.585L185.346 322.512C185.647 322.634 186.004 322.723 186.391 322.791L186.566 321.807ZM185.722 321.585L186.68 321.871L187.396 319.467L186.438 319.182L185.479 318.896L184.764 321.3L185.722 321.585ZM186.438 319.182L186.158 320.142C186.674 320.292 187.177 320.377 187.656 320.369L187.64 319.369L187.623 318.369C187.398 318.373 187.1 318.333 186.717 318.222L186.438 319.182ZM187.64 319.369L187.656 320.369C188.225 320.36 188.752 320.175 189.197 319.815L188.569 319.037L187.94 318.259C187.851 318.331 187.759 318.367 187.623 318.369L187.64 319.369ZM188.569 319.037L189.179 319.829C189.657 319.461 189.973 318.917 190.194 318.335L189.259 317.98L188.324 317.625C188.17 318.032 188.026 318.193 187.958 318.245L188.569 319.037ZM189.259 317.98L190.196 318.33L190.46 317.623L189.523 317.273L188.586 316.923L188.322 317.63L189.259 317.98ZM189.523 317.273L190.465 316.938L185.718 303.574L184.776 303.909L183.834 304.244L188.581 317.607L189.523 317.273ZM184.776 303.909V304.909H188.049V303.909V302.909H184.776V303.909ZM188.049 303.909L187.092 304.201L190.109 314.087L191.066 313.795L192.022 313.504L189.005 303.617L188.049 303.909ZM191.066 313.795V314.795H191.202V313.795V312.795H191.066V313.795ZM191.202 313.795L192.158 314.088L195.184 304.202L194.228 303.909L193.271 303.616L190.246 313.503L191.202 313.795ZM194.228 303.909V304.909H197.509V303.909V302.909H194.228V303.909ZM197.509 303.909L196.567 303.573L191.326 318.249L192.267 318.585L193.209 318.922L198.451 304.245L197.509 303.909ZM192.267 318.585L191.324 318.253C191.113 318.853 190.841 319.342 190.521 319.734L191.296 320.366L192.071 320.999C192.557 320.402 192.934 319.703 193.211 318.918L192.267 318.585ZM191.296 320.366L190.518 319.739C190.213 320.116 189.846 320.399 189.405 320.595L189.813 321.509L190.221 322.422C190.951 322.096 191.572 321.617 192.074 320.994L191.296 320.366ZM189.813 321.509L189.394 320.6C188.976 320.793 188.433 320.909 187.733 320.909V321.909V322.909C188.648 322.909 189.491 322.758 190.231 322.417L189.813 321.509ZM201.593 316.438L201.091 317.302L201.097 317.306L201.593 316.438ZM199.403 314.102L198.511 314.553L198.512 314.556L199.403 314.102ZM199.403 306.986L198.511 306.535L198.51 306.537L199.403 306.986ZM201.568 304.599L202.091 305.452L202.095 305.449L201.568 304.599ZM207.116 304.131L206.773 305.07L206.782 305.073L207.116 304.131ZM209.025 305.324L208.326 306.038L208.329 306.042L209.025 305.324ZM210.338 307.386L209.403 307.742L209.404 307.744L210.338 307.386ZM210.815 311.298V312.298H211.815V311.298H210.815ZM200.085 311.298H199.085V312.298H200.085V311.298ZM200.085 309.219V308.219H199.085V309.219H200.085ZM207.858 309.219V310.219H208.867L208.858 309.209L207.858 309.219ZM207.474 307.642L206.593 308.115L206.595 308.119L207.474 307.642ZM206.426 306.543L205.91 307.399L205.914 307.402L206.426 306.543ZM203.213 306.602L203.746 307.448L203.753 307.443L203.213 306.602ZM202.096 307.795L201.216 307.32L201.214 307.324L202.096 307.795ZM201.696 309.406L200.696 309.397V309.406H201.696ZM202.113 313.182L201.223 313.636L201.225 313.64L202.113 313.182ZM203.281 314.426L202.779 315.291L202.787 315.296L203.281 314.426ZM206.255 314.665L206.58 315.611L206.594 315.606L206.255 314.665ZM207.806 313.165L207.918 312.171L207.14 312.084L206.868 312.818L207.806 313.165ZM210.687 313.489L211.66 313.721L211.922 312.621L210.799 312.495L210.687 313.489ZM209.647 315.483L208.904 314.814L208.904 314.814L209.647 315.483ZM207.704 316.795L208.066 317.728L208.072 317.725L207.704 316.795ZM204.994 317.256V316.256C203.822 316.256 202.866 316.013 202.09 315.569L201.593 316.438L201.097 317.306C202.23 317.953 203.541 318.256 204.994 318.256V317.256ZM201.593 316.438L202.096 315.573C201.318 315.121 200.721 314.488 200.294 313.649L199.403 314.102L198.512 314.556C199.108 315.728 199.971 316.651 201.091 317.302L201.593 316.438ZM199.403 314.102L200.295 313.651C199.868 312.806 199.636 311.776 199.636 310.531H198.636H197.636C197.636 312.025 197.915 313.376 198.511 314.553L199.403 314.102ZM198.636 310.531H199.636C199.636 309.312 199.867 308.289 200.296 307.435L199.403 306.986L198.51 306.537C197.916 307.716 197.636 309.057 197.636 310.531H198.636ZM199.403 306.986L200.295 307.437C200.734 306.57 201.331 305.918 202.091 305.452L201.568 304.599L201.045 303.747C199.952 304.418 199.106 305.356 198.511 306.535L199.403 306.986ZM201.568 304.599L202.095 305.449C202.84 304.987 203.74 304.739 204.832 304.739V303.739V302.739C203.424 302.739 202.148 303.064 201.041 303.749L201.568 304.599ZM204.832 303.739V304.739C205.529 304.739 206.173 304.851 206.773 305.07L207.116 304.131L207.459 303.191C206.627 302.888 205.749 302.739 204.832 302.739V303.739ZM207.116 304.131L206.782 305.073C207.366 305.28 207.877 305.599 208.326 306.038L209.025 305.324L209.725 304.609C209.071 303.969 208.31 303.493 207.45 303.188L207.116 304.131ZM209.025 305.324L208.329 306.042C208.766 306.465 209.129 307.023 209.403 307.742L210.338 307.386L211.272 307.03C210.91 306.079 210.398 305.262 209.721 304.606L209.025 305.324ZM210.338 307.386L209.404 307.744C209.668 308.432 209.815 309.293 209.815 310.352H210.815H211.815C211.815 309.116 211.644 308 211.271 307.028L210.338 307.386ZM210.815 310.352H209.815V311.298H210.815H211.815V310.352H210.815ZM210.815 311.298V310.298H200.085V311.298V312.298H210.815V311.298ZM200.085 311.298H201.085V309.219H200.085H199.085V311.298H200.085ZM200.085 309.219V310.219H207.858V309.219V308.219H200.085V309.219ZM207.858 309.219L208.858 309.209C208.851 308.476 208.69 307.786 208.353 307.165L207.474 307.642L206.595 308.119C206.758 308.418 206.853 308.78 206.858 309.228L207.858 309.219ZM207.474 307.642L208.355 307.169C208.02 306.545 207.544 306.044 206.937 305.683L206.426 306.543L205.914 307.402C206.205 307.575 206.428 307.807 206.593 308.115L207.474 307.642ZM206.426 306.543L206.942 305.686C206.322 305.312 205.621 305.142 204.875 305.142V306.142V307.142C205.31 307.142 205.643 307.239 205.91 307.399L206.426 306.543ZM204.875 306.142V305.142C204.074 305.142 203.328 305.339 202.672 305.761L203.213 306.602L203.753 307.443C204.052 307.252 204.414 307.142 204.875 307.142V306.142ZM203.213 306.602L202.679 305.757C202.057 306.149 201.566 306.674 201.216 307.32L202.096 307.795L202.976 308.271C203.161 307.928 203.414 307.658 203.746 307.448L203.213 306.602ZM202.096 307.795L201.214 307.324C200.873 307.963 200.703 308.659 200.696 309.397L201.696 309.406L202.696 309.416C202.7 308.983 202.797 308.606 202.978 308.267L202.096 307.795ZM201.696 309.406H200.696V311.222H201.696H202.696V309.406H201.696ZM201.696 311.222H200.696C200.696 312.103 200.857 312.92 201.223 313.636L202.113 313.182L203.004 312.727C202.813 312.353 202.696 311.863 202.696 311.222H201.696ZM202.113 313.182L201.225 313.64C201.586 314.341 202.106 314.901 202.779 315.291L203.281 314.426L203.782 313.561C203.456 313.372 203.198 313.102 203.002 312.723L202.113 313.182ZM203.281 314.426L202.787 315.296C203.461 315.679 204.222 315.852 205.037 315.852V314.852V313.852C204.51 313.852 204.101 313.742 203.775 313.557L203.281 314.426ZM205.037 314.852V315.852C205.578 315.852 206.096 315.777 206.58 315.61L206.255 314.665L205.93 313.719C205.687 313.803 205.393 313.852 205.037 313.852V314.852ZM206.255 314.665L206.594 315.606C207.078 315.432 207.513 315.172 207.885 314.824L207.201 314.094L206.518 313.364C206.356 313.515 206.16 313.636 205.917 313.724L206.255 314.665ZM207.201 314.094L207.885 314.824C208.274 314.459 208.559 314.015 208.745 313.511L207.806 313.165L206.868 312.818C206.782 313.053 206.663 313.228 206.518 313.364L207.201 314.094ZM207.806 313.165L207.695 314.159L210.575 314.482L210.687 313.489L210.799 312.495L207.918 312.171L207.806 313.165ZM210.687 313.489L209.714 313.256C209.57 313.859 209.301 314.373 208.904 314.814L209.647 315.483L210.391 316.152C211.017 315.457 211.44 314.641 211.66 313.721L210.687 313.489ZM209.647 315.483L208.904 314.814C208.513 315.248 208 315.603 207.336 315.866L207.704 316.795L208.072 317.725C208.988 317.363 209.77 316.842 210.391 316.152L209.647 315.483ZM207.704 316.795L207.342 315.863C206.688 316.117 205.911 316.256 204.994 316.256V317.256V318.256C206.111 318.256 207.14 318.087 208.066 317.728L207.704 316.795ZM219.962 303.909H220.962V302.909H219.962V303.909ZM219.962 306.295V307.295H220.962V306.295H219.962ZM212.436 306.295H211.436V307.295H212.436V306.295ZM212.436 303.909V302.909H211.436V303.909H212.436ZM214.294 300.773V299.773H213.294V300.773H214.294ZM217.38 300.773H218.38V299.773H217.38V300.773ZM217.567 314.017L216.696 314.508L216.704 314.522L216.712 314.535L217.567 314.017ZM218.078 314.46L217.725 315.396V315.396L218.078 314.46ZM219.306 314.537L219.136 313.551L219.13 313.553L219.306 314.537ZM219.681 314.46L220.658 314.25L220.437 313.224L219.423 313.494L219.681 314.46ZM220.201 316.872L220.527 317.818L221.365 317.528L221.178 316.661L220.201 316.872ZM219.493 317.06L219.276 316.083L219.272 316.084L219.493 317.06ZM218.385 317.179L218.359 316.179L218.356 316.179L218.385 317.179ZM216.297 316.83L215.908 317.751L215.916 317.754L216.297 316.83ZM214.823 315.619L213.987 316.168L213.991 316.174L214.823 315.619ZM214.294 313.574L215.294 313.581V313.574H214.294ZM219.962 303.909H218.962V306.295H219.962H220.962V303.909H219.962ZM219.962 306.295V305.295H212.436V306.295V307.295H219.962V306.295ZM212.436 306.295H213.436V303.909H212.436H211.436V306.295H212.436ZM212.436 303.909V304.909H219.962V303.909V302.909H212.436V303.909ZM214.294 300.773V301.773H217.38V300.773V299.773H214.294V300.773ZM217.38 300.773H216.38V313.062H217.38H218.38V300.773H217.38ZM217.38 313.062H216.38C216.38 313.552 216.449 314.07 216.696 314.508L217.567 314.017L218.438 313.526C218.44 313.529 218.424 313.501 218.408 313.419C218.392 313.339 218.38 313.222 218.38 313.062H217.38ZM217.567 314.017L216.712 314.535C216.943 314.917 217.28 315.227 217.725 315.396L218.078 314.46L218.432 313.525C218.434 313.526 218.437 313.527 218.441 313.529C218.445 313.531 218.447 313.533 218.448 313.534C218.45 313.536 218.44 313.528 218.423 313.499L217.567 314.017ZM218.078 314.46L217.725 315.396C218.062 315.523 218.417 315.58 218.777 315.58V314.58V313.58C218.626 313.58 218.515 313.556 218.432 313.525L218.078 314.46ZM218.777 314.58V315.58C219.018 315.58 219.255 315.562 219.482 315.521L219.306 314.537L219.13 313.553C219.039 313.569 218.923 313.58 218.777 313.58V314.58ZM219.306 314.537L219.476 315.522C219.649 315.493 219.809 315.461 219.938 315.426L219.681 314.46L219.423 313.494C219.382 313.505 219.292 313.525 219.136 313.551L219.306 314.537ZM219.681 314.46L218.703 314.671L219.223 317.083L220.201 316.872L221.178 316.661L220.658 314.25L219.681 314.46ZM220.201 316.872L219.875 315.927C219.763 315.965 219.57 316.018 219.276 316.083L219.493 317.06L219.71 318.036C220.03 317.965 220.309 317.893 220.527 317.818L220.201 316.872ZM219.493 317.06L219.272 316.084C219.056 316.133 218.756 316.169 218.359 316.179L218.385 317.179L218.411 318.179C218.89 318.166 219.329 318.122 219.714 318.035L219.493 317.06ZM218.385 317.179L218.356 316.179C217.702 316.199 217.149 316.1 216.679 315.905L216.297 316.83L215.916 317.754C216.684 318.071 217.523 318.205 218.415 318.179L218.385 317.179ZM216.297 316.83L216.686 315.908C216.242 315.721 215.907 315.443 215.655 315.065L214.823 315.619L213.991 316.174C214.466 316.887 215.113 317.415 215.908 317.751L216.297 316.83ZM214.823 315.619L215.659 315.071C215.434 314.728 215.29 314.252 215.294 313.581L214.294 313.574L213.294 313.567C213.288 314.532 213.496 315.42 213.987 316.168L214.823 315.619ZM214.294 313.574H215.294V300.773H214.294H213.294V313.574H214.294Z" fill="#1E2939" mask="url(#path-2-outside-1_11464_128822)"/>
<path d="M135.938 223.814L135.494 224.131L135.057 223.819L135.15 221.459L135.193 221.48L135.239 221.494L135.339 221.522L135.455 221.556L135.574 221.531L135.717 221.503L135.781 221.49L135.84 221.461L135.843 221.459L135.938 223.814ZM137.936 223.94L137.203 223.604L137.093 220.971L137.753 220.636L137.936 223.94ZM133.895 220.965L133.785 223.599L133.059 223.936L133.241 220.637L133.895 220.965Z" fill="#364153" stroke="#1E2939"/>
<path d="M135.519 221.088L135.561 221.109L135.607 221.123L135.716 221.153L135.832 221.188L135.951 221.163L136.105 221.133L136.17 221.119L136.229 221.091L136.295 221.058L136.4 223.716L135.872 224.094L135.351 223.721L135.456 221.056L135.519 221.088ZM138.58 223.903L137.689 223.494L137.568 220.569L138.374 220.161L138.58 223.903ZM134.177 220.562L134.054 223.487L133.171 223.896L133.378 220.163L134.177 220.562Z" fill="#364153" stroke="#1E2939"/>
<path d="M123.889 135.219L117.042 147.054C116.214 148.484 114.923 149.588 113.384 150.183C111.844 150.777 110.148 150.827 108.577 150.323L84.6729 142.643L84.0205 142.433V172.058L84.3672 172.169L124.168 184.965L124.821 185.174V133.606L123.889 135.219ZM139.293 185.166L139.945 184.957L179.746 172.169L180.094 172.058V142.433L179.44 142.643L155.537 150.323C154.103 150.784 152.561 150.785 151.127 150.326C149.697 149.869 148.444 148.977 147.542 147.774L147.063 147.04L140.226 135.219L139.293 133.606V185.166ZM79.9482 97.9033L66.6201 120.975L66.3096 121.512L66.8994 121.701L107.057 134.612L107.44 134.736L107.643 134.387L120.986 111.315L121.297 110.778L120.707 110.589L80.5342 97.6777L80.1504 97.5537L79.9482 97.9033ZM183.579 97.6777L143.407 110.589L142.816 110.778L143.127 111.315L156.464 134.387L156.665 134.736L157.05 134.612L197.214 121.701L197.804 121.512L197.494 120.975L184.165 97.9033L183.963 97.5537L183.579 97.6777ZM134.568 79.5264C133.265 79.1092 131.877 79.0246 130.532 79.2793L130.519 79.2822L130.504 79.2852L129.576 79.5176L129.56 79.5215L129.544 79.5264L101.966 88.3926L100.485 88.8691L101.966 89.3447L131.904 98.9629L132.057 99.0117L132.21 98.9629L162.147 89.3447L163.629 88.8691L162.147 88.3926L134.569 79.5264H134.568ZM69.5488 137.779L69.2012 137.667L53.3359 132.567C52.3816 132.261 51.5005 131.758 50.75 131.093C49.9997 130.427 49.3953 129.613 48.9756 128.701C48.5558 127.789 48.3296 126.799 48.3115 125.795C48.2935 124.793 48.4833 123.799 48.8682 122.874L49.2939 122.005L70.5566 85.2363C71.2993 83.9525 72.417 82.9276 73.7588 82.3008L74.583 81.9619L125.124 65.7227C129.056 64.4585 133.258 64.292 137.277 65.2422L139.008 65.7285V65.7275L189.531 81.9648V81.9658C190.905 82.4222 192.139 83.2742 193.041 84.4629L193.562 85.2471L214.83 122.025V122.026C215.333 122.896 215.651 123.861 215.763 124.859C215.874 125.858 215.777 126.869 215.478 127.828C215.178 128.787 214.683 129.674 214.023 130.432C213.368 131.184 212.563 131.792 211.662 132.219L210.762 132.572L194.912 137.667L194.564 137.779V171.701C194.563 174.67 193.683 177.572 192.034 180.039C190.387 182.505 188.046 184.425 185.31 185.558L184.167 185.98L138.99 200.489C135.06 201.753 130.861 201.919 126.844 200.971H126.845L125.104 200.49H125.103L79.9473 185.98C77.125 185.073 74.6348 183.346 72.793 181.019C71.0663 178.837 69.982 176.22 69.6562 173.462L69.6016 172.908L69.5488 171.693V137.779Z" fill="#364153" stroke="#1E2939"/>
</svg>
