<svg xmlns="http://www.w3.org/2000/svg" width="80" height="79" viewBox="0 0 80 79" fill="none">
<path d="M21.8965 26.3333C21.8965 29.9692 24.8439 32.9167 28.4798 32.9167C32.1157 32.9167 35.0632 29.9692 35.0632 26.3333C35.0632 22.6975 32.1157 19.75 28.4798 19.75C24.8439 19.75 21.8965 22.6975 21.8965 26.3333Z" stroke="#020618" stroke-width="1.5" stroke-linecap="round" stroke-linejoin="round"/>
<path d="M69.3855 32.8831C47.6238 29.8956 28.8612 46.0512 30.1248 67.4792" stroke="#020618" stroke-width="1.5" stroke-linecap="round" stroke-linejoin="round"/>
<path d="M10.375 43.0076C19.5237 41.7409 27.7381 46.1639 32.1776 53.2128" stroke="#020618" stroke-width="1.5" stroke-linecap="round" stroke-linejoin="round"/>
<path d="M10.375 39.5C10.375 25.5346 10.375 18.552 14.7135 14.2135C19.052 9.875 26.0346 9.875 40 9.875C53.9654 9.875 60.948 9.875 65.2865 14.2135C69.625 18.552 69.625 25.5346 69.625 39.5C69.625 53.4654 69.625 60.448 65.2865 64.7865C60.948 69.125 53.9654 69.125 40 69.125C26.0346 69.125 19.052 69.125 14.7135 64.7865C10.375 60.448 10.375 53.4654 10.375 39.5Z" stroke="#020618" stroke-width="1.5" stroke-linecap="round" stroke-linejoin="round"/>
</svg>