<svg width="79" height="25" viewBox="0 0 79 25" fill="none" xmlns="http://www.w3.org/2000/svg">
<path d="M8.68147 16.9078C4.42466 16.9078 1 13.3617 1 8.95389C1 4.57925 4.42466 1 8.68147 1C12.9063 1 16.3629 4.57925 16.3629 8.95389C16.3309 13.3617 12.9063 16.9078 8.68147 16.9078ZM8.68147 3.91643C5.99296 3.91643 3.81654 6.17003 3.81654 8.95389C3.81654 11.7378 5.99296 13.9914 8.68147 13.9914C11.37 13.9914 13.5464 11.7378 13.5464 8.95389C13.5464 6.17003 11.37 3.91643 8.68147 3.91643Z" fill="white"/>
<path d="M26.0711 1.03314C30.2319 1.03314 33.7525 4.51297 33.7525 8.98703C33.7525 13.2291 30.4239 16.9078 26.0711 16.9078C24.3427 16.9078 22.6144 16.3112 21.2061 15.1182V24H18.3896V8.98703C18.3896 4.54611 21.8462 1.03314 26.0711 1.03314ZM26.0711 13.9914C28.7596 13.9914 30.936 11.7378 30.936 8.98703C30.936 6.20317 28.7596 3.94957 26.0711 3.94957C23.3825 3.94957 21.2061 6.20317 21.2061 8.98703C21.2061 11.7378 23.3825 13.9914 26.0711 13.9914Z" fill="white"/>
<path d="M43.3444 16.9078C39.0875 16.9078 35.6629 13.3617 35.6629 8.95389C35.6629 4.57925 39.0875 1 43.3444 1C47.5692 1 51.0258 4.57925 51.0258 8.95389C50.9938 13.3617 47.5692 16.9078 43.3444 16.9078ZM43.3444 3.91643C40.6558 3.91643 38.4794 6.17003 38.4794 8.95389C38.4794 11.7378 40.6558 13.9914 43.3444 13.9914C46.0329 13.9914 48.2093 11.7378 48.2093 8.95389C48.2093 6.17003 46.0329 3.91643 43.3444 3.91643Z" fill="white"/>
<path d="M71.8691 16.4438H69.0525V6.53458C69.0525 5.07637 67.9003 3.88329 66.4921 3.88329C65.0838 3.88329 63.9316 5.07637 63.9316 6.53458V16.4438H61.115V6.53458C61.115 5.07637 59.9628 3.88329 58.5545 3.88329C57.1463 3.88329 56.026 5.04323 55.994 6.50144V16.4438H53.1775V6.56772C53.1775 3.51873 55.578 1.03314 58.5545 1.03314C60.0588 1.03314 61.4991 1.69597 62.5233 2.85591C63.5795 1.62968 65.0198 1.03314 66.4921 1.03314C69.4366 1.03314 71.8691 3.51873 71.8691 6.60086V16.4438Z" fill="white"/>
<path d="M75.7276 12.268C76.9758 12.268 78 13.2954 78 14.5879C78 15.9135 76.9758 16.9409 75.7276 16.9409C74.4793 16.9409 73.4551 15.9135 73.4551 14.5879C73.4551 13.2954 74.4793 12.268 75.7276 12.268Z" fill="white"/>
<path d="M8.68147 16.9078C4.42466 16.9078 1 13.3617 1 8.95389C1 4.57925 4.42466 1 8.68147 1C12.9063 1 16.3629 4.57925 16.3629 8.95389C16.3309 13.3617 12.9063 16.9078 8.68147 16.9078ZM8.68147 3.91643C5.99296 3.91643 3.81654 6.17003 3.81654 8.95389C3.81654 11.7378 5.99296 13.9914 8.68147 13.9914C11.37 13.9914 13.5464 11.7378 13.5464 8.95389C13.5464 6.17003 11.37 3.91643 8.68147 3.91643Z" stroke="white" stroke-width="0.5"/>
<path d="M26.0711 1.03314C30.2319 1.03314 33.7525 4.51297 33.7525 8.98703C33.7525 13.2291 30.4239 16.9078 26.0711 16.9078C24.3427 16.9078 22.6144 16.3112 21.2061 15.1182V24H18.3896V8.98703C18.3896 4.54611 21.8462 1.03314 26.0711 1.03314ZM26.0711 13.9914C28.7596 13.9914 30.936 11.7378 30.936 8.98703C30.936 6.20317 28.7596 3.94957 26.0711 3.94957C23.3825 3.94957 21.2061 6.20317 21.2061 8.98703C21.2061 11.7378 23.3825 13.9914 26.0711 13.9914Z" stroke="white" stroke-width="0.5"/>
<path d="M43.3444 16.9078C39.0875 16.9078 35.6629 13.3617 35.6629 8.95389C35.6629 4.57925 39.0875 1 43.3444 1C47.5692 1 51.0258 4.57925 51.0258 8.95389C50.9938 13.3617 47.5692 16.9078 43.3444 16.9078ZM43.3444 3.91643C40.6558 3.91643 38.4794 6.17003 38.4794 8.95389C38.4794 11.7378 40.6558 13.9914 43.3444 13.9914C46.0329 13.9914 48.2093 11.7378 48.2093 8.95389C48.2093 6.17003 46.0329 3.91643 43.3444 3.91643Z" stroke="white" stroke-width="0.5"/>
<path d="M71.8691 16.4438H69.0525V6.53458C69.0525 5.07637 67.9003 3.88329 66.4921 3.88329C65.0838 3.88329 63.9316 5.07637 63.9316 6.53458V16.4438H61.115V6.53458C61.115 5.07637 59.9628 3.88329 58.5545 3.88329C57.1463 3.88329 56.026 5.04323 55.994 6.50144V16.4438H53.1775V6.56772C53.1775 3.51873 55.578 1.03314 58.5545 1.03314C60.0588 1.03314 61.4991 1.69597 62.5233 2.85591C63.5795 1.62968 65.0198 1.03314 66.4921 1.03314C69.4366 1.03314 71.8691 3.51873 71.8691 6.60086V16.4438Z" stroke="white" stroke-width="0.5"/>
<path d="M75.7276 12.268C76.9758 12.268 78 13.2954 78 14.5879C78 15.9135 76.9758 16.9409 75.7276 16.9409C74.4793 16.9409 73.4551 15.9135 73.4551 14.5879C73.4551 13.2954 74.4793 12.268 75.7276 12.268Z" stroke="white" stroke-width="0.5"/>
</svg>
