<svg xmlns="http://www.w3.org/2000/svg" version="1.1" xmlns:xlink="http://www.w3.org/1999/xlink" width="1000" height="1000"><g clip-path="url(#SvgjsClipPath1029)"><rect width="1000" height="1000" fill="#ffffff"></rect><g transform="matrix(2,0,0,2,0,0)"><svg xmlns="http://www.w3.org/2000/svg" width="500" height="500" viewBox="0 0 500 500" fill="none"><path d="M201.941 380C132.703 380 77 322.265 77 250.5C77 179.275 132.703 121 201.941 121C270.658 121 326.881 179.275 326.881 250.5C326.36 322.265 270.658 380 201.941 380ZM201.941 168.483C158.211 168.483 122.812 205.175 122.812 250.5C122.812 295.825 158.211 332.517 201.941 332.517C245.67 332.517 281.07 295.825 281.07 250.5C281.07 205.175 245.67 168.483 201.941 168.483Z" fill="black"></path><path d="M386.038 303.919C406.341 303.919 423 320.646 423 341.69C423 363.273 406.341 380 386.038 380C365.736 380 349.077 363.273 349.077 341.69C349.077 320.646 365.736 303.919 386.038 303.919Z" fill="black"></path></svg></g></g><defs><clipPath id="SvgjsClipPath1029"><rect width="1000" height="1000" x="0" y="0" rx="500" ry="500"></rect></clipPath></defs></svg>