<svg width="61" height="45" viewBox="0 0 61 45" fill="none" xmlns="http://www.w3.org/2000/svg">
<path d="M21.7294 45C9.68769 45 0 34.9687 0 22.5C0 10.125 9.68769 0 21.7294 0C33.6805 0 43.4588 10.125 43.4588 22.5C43.3682 34.9687 33.6805 45 21.7294 45ZM21.7294 8.25C14.1241 8.25 7.96744 14.625 7.96744 22.5C7.96744 30.375 14.1241 36.75 21.7294 36.75C29.3347 36.75 35.4913 30.375 35.4913 22.5C35.4913 14.625 29.3347 8.25 21.7294 8.25Z" fill="white"/>
<path d="M53.7473 31.7812C57.2783 31.7812 60.1755 34.6875 60.1755 38.3437C60.1755 42.0937 57.2783 45 53.7473 45C50.2163 45 47.319 42.0937 47.319 38.3437C47.319 34.6875 50.2163 31.7812 53.7473 31.7812Z" fill="white"/>
</svg>
