<svg xmlns="http://www.w3.org/2000/svg" width="20" height="20" viewBox="0 0 20 20" fill="none">
<path d="M2.91602 13.0566C3.29054 13.1023 3.56832 13.2742 3.74935 13.5722C4.02089 14.0192 5.03027 15.6774 6.17647 15.6774C6.94064 15.6774 7.52081 15.6774 7.91701 15.6774" stroke="#F9FAFB" stroke-width="1.5" stroke-linecap="round" stroke-linejoin="round"/>
<path d="M8.64205 12.8262C8.15934 13.3564 7.91797 13.8599 7.91797 14.3367C7.91797 14.8134 7.91797 15.5606 7.91797 17.5001" stroke="#F9FAFB" stroke-width="1.5" stroke-linecap="round" stroke-linejoin="round"/>
<path d="M12.6435 12.7489C13.645 12.5412 14.5538 12.181 15.2603 11.6522C16.4668 10.7492 17.0833 9.35452 17.0833 7.9766C17.0833 7.00997 16.7161 6.1075 16.0804 5.34313C15.7261 4.9172 16.7623 2.11633 15.8417 2.54434C14.921 2.97235 13.5712 3.54261 12.8636 3.33353C12.106 3.10968 11.2805 2.98669 10.4167 2.98669C9.66633 2.98669 8.94496 3.07947 8.27192 3.25054C7.29358 3.49919 6.35796 2.94798 5.41667 2.54434C4.47536 2.1407 4.989 5.05056 4.70942 5.39623C4.1005 6.14913 3.75 7.03222 3.75 7.9766C3.75 9.35452 4.49619 10.7492 5.70263 11.6522C6.50629 12.2537 7.51417 12.6371 8.64171 12.826" stroke="#F9FAFB" stroke-width="1.5" stroke-linecap="round" stroke-linejoin="round"/>
<path d="M12.6426 12.749C13.1 13.3481 13.3287 13.8861 13.3287 14.3628C13.3287 14.8396 13.3287 15.5781 13.3287 17.5001" stroke="#F9FAFB" stroke-width="1.5" stroke-linecap="round" stroke-linejoin="round"/>
</svg>