<svg xmlns="http://www.w3.org/2000/svg" width="20" height="20" viewBox="0 0 20 20" fill="none">
<path d="M17.3658 8.65H10.1525V11.425H14.3731C14.2963 12.1 13.8359 13.15 12.8383 13.825C12.2244 14.275 11.3036 14.575 10.1525 14.575C7.58674 14.575 5.54828 12.4316 5.54828 9.925C5.54828 7.4894 7.7025 5.35 10.1525 5.35C11.6105 5.35 12.5314 5.95 13.1453 6.475L15.2939 4.375C13.9894 3.25 12.2244 2.5 10.1525 2.5C7.15976 2.5 4.55069 4.15 3.32289 6.625C2.2257 8.7697 2.2257 11.2303 3.32289 13.375C4.55069 15.85 7.15976 17.5 10.1525 17.5C12.2244 17.5 13.9894 16.825 15.2172 15.7C17.2179 13.9504 17.7968 11.1772 17.3658 8.65Z" stroke="#F9FAFB" stroke-width="1.5" stroke-miterlimit="10" stroke-linecap="round" stroke-linejoin="round"/>
</svg>