<svg xmlns="http://www.w3.org/2000/svg" width="23" height="23" viewBox="0 0 23 23" fill="none">
  <path d="M20.75 13.0384H13.0416V20.7467C13.0416 21.1556 12.8792 21.5477 12.5901 21.8369C12.301 22.126 11.9089 22.2884 11.5 22.2884C11.0911 22.2884 10.699 22.126 10.4099 21.8369C10.1207 21.5477 9.95831 21.1556 9.95831 20.7467V13.0384H2.24998C1.8411 13.0384 1.44898 12.876 1.15986 12.5869C0.870738 12.2977 0.708313 11.9056 0.708313 11.4967C0.708313 11.0879 0.870738 10.6957 1.15986 10.4066C1.44898 10.1175 1.8411 9.95508 2.24998 9.95508H9.95831V2.24674C9.95831 1.83787 10.1207 1.44574 10.4099 1.15662C10.699 0.867503 11.0911 0.705078 11.5 0.705078C11.9089 0.705078 12.301 0.867503 12.5901 1.15662C12.8792 1.44574 13.0416 1.83787 13.0416 2.24674V9.95508H20.75C21.1589 9.95508 21.551 10.1175 21.8401 10.4066C22.1292 10.6957 22.2916 11.0879 22.2916 11.4967C22.2916 11.9056 22.1292 12.2977 21.8401 12.5869C21.551 12.876 21.1589 13.0384 20.75 13.0384Z" fill="white"/>
</svg>